<svg width="1512" height="836" viewBox="0 0 1512 836" fill="none" xmlns="http://www.w3.org/2000/svg">
	<g opacity="0.1">
		<path d="M771.728 833.213C766.285 831.543 762.051 827.644 757.819 823.745C756.003 822.075 753.584 820.404 751.77 818.733C744.513 812.607 736.65 805.923 730.601 797.568C720.32 783.088 718.506 766.935 724.553 746.885C728.787 732.962 735.441 719.037 741.487 705.67L746.93 693.973C756.002 673.367 766.888 649.417 771.122 624.35C774.751 603.186 768.098 581.464 753.583 565.87C740.277 551.389 721.529 543.591 701.57 543.034H694.917C690.079 543.034 685.24 543.034 679.797 541.92C668.305 540.249 661.048 533.566 658.024 522.984C656.33 517.364 655.515 511.551 655.605 505.718C655.605 489.567 655.001 474.529 652.581 459.491C647.139 427.187 628.995 405.466 595.731 392.099C587.868 389.314 581.216 386.529 573.957 384.302C562.467 379.846 550.371 375.389 538.879 370.377C510.454 357.568 487.472 338.63 471.142 314.124C468.722 310.783 466.303 306.884 463.885 303.542C457.836 294.073 451.788 284.048 443.925 275.138C433.644 261.77 422.153 255.643 408.847 255.643C400.38 255.643 390.703 258.428 380.422 263.997C340.505 285.162 317.523 318.579 310.87 363.693C307.846 385.415 309.66 407.136 315.104 431.085C315.709 434.984 316.918 438.326 318.128 442.224C320.547 452.25 322.967 462.275 324.781 472.857C327.199 487.896 325.99 504.047 322.362 521.87C315.709 551.388 307.242 574.224 295.146 593.161C280.63 615.996 260.068 629.362 234.061 632.706C225.648 633.815 217.159 634.374 208.659 634.376C178.42 634.376 148.18 627.693 116.126 613.768C111.515 612.066 107.063 610.017 102.815 607.645C88.9045 601.519 74.3891 594.836 59.2691 590.937C47.0721 587.642 34.4743 585.77 21.7712 585.366C19.3523 585.366 16.9327 584.809 15.1184 584.809C12.1225 584.348 9.0842 584.161 6.04829 584.253C5.44377 584.253 4.83847 584.253 3.62943 583.139V525.215C3.86775 525.004 4.15433 524.844 4.46823 524.748C4.78212 524.651 5.11542 524.621 5.44377 524.658C6.48898 524.572 7.53905 524.765 8.46791 525.215C9.07243 525.215 9.67772 525.772 10.2822 525.772C50.8036 533.012 84.6729 546.936 114.913 568.1C130.032 578.682 143.338 587.593 157.249 594.278C174.788 603.189 192.327 607.644 210.471 608.201H214.705C241.921 608.201 263.089 597.619 276.999 576.454C290.305 555.29 297.562 530.783 298.771 504.049C299.376 486.227 295.748 469.518 291.514 453.363C284.862 428.857 282.442 408.248 283.047 388.756C284.862 359.794 288.49 325.819 304.82 295.186C311.473 282.377 319.94 270.124 332.641 256.199C336.875 251.187 341.108 246.731 345.342 241.719C358.647 226.681 371.953 211.086 387.073 197.163C395.54 187.694 403.403 181.01 411.266 175.998C428.806 164.302 443.32 149.264 457.23 130.327C472.351 109.162 488.68 91.3399 505.614 75.1877C517.106 64.6053 530.412 55.1372 543.113 46.2257L549.161 41.77C563.676 31.7444 573.353 20.0487 578.796 6.12471C579.619 4.87944 580.638 3.75334 581.82 2.78313H654.396C655.874 3.94961 656.93 5.50433 657.42 7.23883C661.654 23.9477 671.936 36.2009 681.613 46.2257C706.409 71.846 723.948 98.0231 736.649 126.986C744.512 145.365 754.188 164.858 768.099 181.01C780.317 194.959 794.33 207.489 809.831 218.326L820.112 225.566C835.836 236.706 852.166 248.402 868.496 258.427C880.591 265.667 892.687 269.567 905.388 270.124H907.808C922.323 270.124 935.023 264.553 945.91 253.971C954.982 245.06 962.844 233.92 971.311 218.326C979.779 202.732 986.431 186.022 993.689 169.871C996.109 164.301 998.528 158.173 1000.95 152.604C1006.68 138.685 1013.35 125.106 1020.91 111.946C1028.16 99.1365 1030.58 87.4401 1028.16 75.187C1024.53 55.6931 1023.93 35.6427 1023.32 18.9338C1023.25 16.5074 1023.45 14.0802 1023.93 11.6932C1024.43 9.49702 1024.63 7.2521 1024.53 5.00994C1024.54 4.57912 1024.66 4.15553 1024.87 3.77013C1025.07 3.38473 1025.37 3.04726 1025.74 2.78239H1089.25C1091.06 3.89653 1092.27 5.00994 1093.48 7.79482C1098.32 17.8204 1101.95 25.0604 1106.79 31.187C1120.7 50.1233 1140.66 60.7056 1167.27 64.0473C1173.31 65.1614 1178.76 65.1614 1184.8 65.1614H1195.69C1202.35 65.7181 1209 65.7181 1215.05 66.2754C1229.56 66.8321 1244.07 67.3896 1258.59 70.1746C1284.6 75.7444 1301.53 94.124 1304.56 119.744C1306.37 135.339 1306.37 147.591 1304.56 159.288C1299.12 189.92 1277.35 211.642 1246.5 217.212C1239.23 218.326 1232.58 219.439 1225.33 219.439C1208.73 219.386 1192.36 215.761 1177.55 208.857C1167.27 203.845 1156.98 198.274 1146.7 192.148C1142.47 189.92 1138.84 187.692 1134.61 185.465C1128 181.867 1121.13 178.703 1114.04 175.997C1106.78 173.136 1098.97 171.623 1091.06 171.541C1079.57 171.541 1067.47 174.883 1055.38 181.567C1041.47 189.364 1029.37 200.503 1017.88 217.212C1007.6 232.25 998.527 248.959 990.665 264.553C988.246 269.008 985.827 274.021 983.407 278.477C978.568 287.388 973.73 294.628 967.682 301.312C958.61 310.781 947.12 315.793 930.185 316.907H924.741C900.549 316.907 878.173 307.996 855.795 289.616C844.909 280.705 834.022 271.792 823.135 262.324L765.075 213.869C745.722 197.716 728.787 177.11 716.086 152.603L715.481 151.489C706.409 134.781 697.338 117.515 682.217 104.704C662.864 87.4387 644.115 79.0839 623.552 78.5272H621.738C607.223 78.5272 595.127 84.6537 583.635 96.9068C577.361 103.786 571.887 111.253 567.306 119.185C550.038 145.073 530.838 169.828 509.847 193.268C498.999 204.852 491.693 218.884 488.678 233.926C485.654 250.078 487.469 266.786 494.727 286.28C505.613 315.799 527.99 335.849 563.069 348.102C574.56 352.001 585.446 355.343 596.333 358.128L619.919 364.811C644.717 372.609 664.069 388.761 679.19 414.38C683.424 421.064 687.053 428.304 690.681 435.544C692.496 440.557 695.521 445.571 697.939 450.583C707.616 467.848 721.527 482.887 742.09 497.924C765.676 515.747 782.611 530.227 797.129 545.264C812.854 561.974 827.37 579.796 842.49 600.404C851.561 613.771 860.03 619.34 870.311 619.34C878.173 619.34 886.036 615.998 896.317 611.543C915.671 602.631 930.79 587.036 943.49 564.758C956.796 541.366 966.473 521.316 973.73 502.378C980.967 483.541 985.244 463.848 986.431 443.897C987.036 434.429 987.036 424.961 987.642 415.493C987.642 407.138 988.246 398.784 988.851 390.43C989.457 382.076 990.062 372.051 993.085 362.582C997.923 346.431 1010.02 336.406 1028.16 334.177C1037.23 333.063 1045.7 331.95 1053.57 331.95C1074.13 331.95 1091.06 336.406 1106.79 345.317C1124.33 355.342 1139.45 370.381 1151.54 389.317C1167.54 414.876 1177.05 443.437 1179.36 472.861L1179.96 480.102C1181.18 496.254 1182.99 512.405 1189.04 528C1193.88 541.367 1201.13 555.848 1217.47 564.203C1222.21 566.676 1227.3 568.55 1232.58 569.772C1234.56 570.233 1236.6 570.42 1238.63 570.329C1248.31 570.329 1256.18 564.759 1260.41 555.291C1265.24 544.708 1267.06 533.57 1268.87 522.431L1270.08 519.646C1274.32 498.481 1279.16 473.975 1291.85 451.697C1301.53 434.431 1311.81 419.95 1323.91 407.697C1336.01 396 1348.71 384.305 1361.41 373.723C1365.04 370.938 1368.67 367.596 1371.69 364.811C1386.21 352.001 1400.11 338.077 1417.05 318.026C1436.4 295.19 1452.73 276.811 1471.48 260.102C1481.16 251.747 1491.43 242.279 1505.35 231.698C1505.95 231.141 1506.56 230.584 1507.16 230.584C1508.38 229.47 1508.98 228.913 1509.59 228.913V333.062C1504.75 341.417 1496.88 347.544 1489.02 352.557C1472.69 363.695 1454.55 372.607 1437.62 380.405C1433.38 382.632 1428.54 384.304 1424.31 386.531C1406.17 394.886 1387.41 403.239 1369.88 413.822C1337.82 433.872 1317.86 458.936 1308.8 489.568C1305.77 500.707 1303.96 510.732 1303.96 520.758V526.327C1303.96 536.353 1303.96 546.934 1306.37 556.96C1310.61 578.124 1323.3 593.163 1343.87 601.517C1355.36 606.529 1368.07 609.314 1379.56 612.655C1383.18 613.769 1386.81 614.326 1389.84 615.44C1407.98 620.453 1432.18 627.694 1455.16 638.833C1482.37 652.756 1498.1 674.478 1502.94 706.225C1505.96 727.389 1502.33 746.883 1491.45 764.705C1485.4 775.288 1475.12 783.085 1459.99 789.212C1449.11 793.667 1437.62 796.452 1426.73 799.237C1423.84 799.721 1420.99 800.467 1418.26 801.465H1417.66C1409.2 803.692 1400.12 805.922 1391.65 809.263C1382.59 813.161 1374.72 819.289 1367.46 828.756C1366.26 830.427 1365.04 832.098 1363.23 833.212H1316.64C1314.83 831.541 1314.83 829.313 1314.23 826.529V824.858C1313.29 815.898 1311.05 807.093 1307.58 798.681C1304.55 790.327 1298.5 785.314 1289.43 783.087C1279.14 780.302 1268.86 779.188 1258.59 778.631C1242.86 776.96 1226.54 775.846 1212.02 774.733C1206.79 774.28 1201.54 774.094 1196.29 774.176C1166.65 774.176 1144.28 781.416 1124.92 796.453C1114.64 804.25 1106.78 814.834 1098.92 828.757C1097.71 830.985 1096.5 832.655 1094.68 833.769H1045.09C1044.49 833.213 1044.49 832.099 1045.7 829.871C1051.74 815.391 1057.79 804.809 1066.26 796.453C1091.66 769.72 1119.48 753.011 1151.54 745.214C1159.84 743.295 1168.37 742.36 1176.93 742.429H1202.94C1209.59 742.429 1218.06 742.429 1226.52 741.315C1237.41 739.644 1249.52 737.416 1257.98 727.39C1261 724.049 1264.02 719.593 1265.24 714.581C1269.47 696.758 1274.91 651.644 1233.79 625.468L1227.14 621.011C1217.46 614.885 1207.18 608.758 1198.1 601.518C1173.92 583.138 1158.79 558.076 1153.35 527.999C1150.93 514.076 1150.32 499.595 1149.72 486.784C1150.32 468.404 1149.11 448.354 1142.46 429.417C1134.6 407.14 1122.5 390.43 1106.17 379.291C1094.68 370.936 1082.59 367.037 1069.89 367.037C1065.83 367.133 1061.79 367.505 1057.79 368.152C1042.07 371.493 1030.57 380.962 1023.92 396.556C1018.48 408.81 1017.27 421.62 1016.66 431.645C1014.41 466.597 1009.77 501.383 1002.75 535.795C999.73 550.275 998.521 565.314 996.706 579.795L996.101 585.921C993.077 614.326 984.006 636.609 967.675 654.984C962.296 660.954 956.434 666.54 950.137 671.694C946.508 675.035 942.88 678.377 939.251 682.276C926.336 695.186 917.18 710.898 912.639 727.946C910.825 734.074 909.615 739.643 907.801 745.77C905.381 754.124 903.567 763.035 900.543 771.947C896.309 786.985 890.261 801.465 884.818 815.39L879.375 828.756C878.885 830.194 877.799 831.395 876.351 832.098H771.728M771.728 835.439H878.176C880.595 834.325 881.805 832.655 883.014 830.427C890.273 811.491 898.74 793.111 904.183 773.061C908.417 758.58 912.046 743.542 915.674 729.06C920.512 711.795 928.374 696.758 941.681 684.504C951.358 675.036 961.035 666.681 970.107 657.213C988.251 637.163 996.717 613.213 999.137 587.035C1000.95 570.327 1002.16 553.619 1005.18 536.909C1012.44 502.378 1016.68 467.286 1019.1 432.759C1019.7 421.063 1021.52 409.367 1026.35 398.228C1032.4 384.304 1042.68 374.279 1058.41 370.936C1062.2 370.291 1066.04 369.919 1069.89 369.824C1082.59 369.824 1094.08 374.28 1104.97 381.52C1122.51 393.773 1132.79 411.039 1140.05 430.532C1146.7 448.356 1147.91 467.292 1148.51 486.228C1149.11 500.152 1149.73 514.076 1152.14 528C1157.59 558.633 1172.71 583.695 1198.11 603.189C1209.6 612.101 1221.7 619.341 1233.79 627.139C1266.45 648.303 1271.29 683.948 1264.03 714.024C1262.8 718.336 1260.53 722.335 1257.38 725.72C1249.52 735.189 1238.63 737.417 1227.14 739.088C1219.28 740.202 1211.41 740.202 1203.56 740.202H1177.55C1168.79 740.304 1160.08 741.237 1151.54 742.987C1117.07 751.341 1088.64 769.721 1065.05 794.784C1055.38 804.81 1049.33 816.506 1044.49 829.315C1043.28 832.1 1042.68 834.327 1045.09 835.998H1095.9C1098.92 834.884 1100.13 832.1 1101.34 829.872C1107.99 817.619 1115.86 807.037 1126.74 798.125C1147.91 781.974 1171.5 776.404 1196.9 776.404C1201.95 776.311 1207 776.497 1212.02 776.961C1227.74 778.075 1243.47 779.188 1258.59 780.859C1268.87 781.973 1279.16 783.087 1288.82 785.315C1296.69 787.542 1302.14 791.998 1305.16 799.238C1308.03 807.586 1310.06 816.164 1311.21 824.859C1311.81 828.757 1311.81 832.656 1314.83 835.441H1363.22C1365.36 833.876 1367.2 831.994 1368.66 829.872C1374.71 822.075 1381.97 815.392 1391.65 811.493C1400.11 808.151 1409.19 805.923 1418.26 803.695C1432.16 800.353 1446.68 797.011 1459.98 791.442C1473.3 785.872 1485.39 778.632 1492.64 765.821C1503.53 746.885 1507.16 726.834 1504.14 705.667C1499.3 675.034 1483.58 651.641 1455.14 637.161C1435.8 626.021 1413.42 618.78 1391.03 612.654C1375.31 608.198 1359.59 604.857 1345.08 598.73C1325.11 590.376 1313.02 576.452 1308.79 555.287C1306.37 543.591 1306.37 531.896 1306.37 520.198C1306.45 509.832 1308.08 499.525 1311.21 489.567C1320.88 456.706 1342.65 433.313 1371.69 415.491C1392.86 402.123 1415.84 392.655 1438.81 382.073C1456.97 373.718 1474.5 364.807 1490.23 353.669C1498.69 348.099 1506.56 341.972 1512 333.061V226.686C1511.4 226.129 1510.19 226.129 1509.57 226.129C1507.16 226.129 1505.35 228.356 1503.53 230.028C1492.04 239.496 1480.55 248.964 1469.66 258.989C1449.7 276.812 1432.16 296.862 1415.23 317.47C1401.32 334.179 1386.81 349.774 1370.48 363.697C1354.14 377.622 1337.21 391.544 1322.1 406.583C1308.79 419.95 1298.5 434.43 1289.44 450.583C1277.33 472.304 1271.89 495.696 1267.67 519.089C1265.24 530.786 1263.43 543.038 1258.59 554.178C1254.96 563.089 1247.7 567.545 1239.23 567.545C1237.4 567.635 1235.57 567.448 1233.79 566.988C1228.63 565.958 1223.71 564.071 1219.28 561.418C1204.76 554.178 1197.51 540.81 1192.06 526.33C1185.41 509.064 1184.2 490.127 1182.39 471.747C1180.16 442.058 1170.42 413.258 1153.95 387.646C1142.47 369.266 1127.35 353.672 1107.99 343.09C1090.45 333.064 1072.31 329.722 1053.56 329.722C1044.83 329.661 1036.12 330.407 1027.55 331.95C1010.02 334.179 996.106 343.647 990.663 362.026C987.638 371.495 986.428 380.963 985.824 390.431C984.614 408.254 984.614 426.076 983.405 443.899C982.275 463.675 977.996 483.192 970.705 501.823C962.237 523.544 951.954 543.594 940.464 563.645C929.578 583.139 915.062 599.847 894.5 609.873C884.822 614.885 876.96 617.67 869.702 617.67C860.631 617.67 852.768 612.657 843.696 599.847C829.799 580.463 814.652 561.865 798.336 544.151C781.402 526.329 762.654 511.291 743.3 496.253C725.76 483.444 710.641 468.962 699.754 450.026C693.101 437.772 687.658 425.519 680.4 413.266C666.49 389.317 647.137 371.495 619.92 362.579C601.172 357.009 582.423 352.554 563.674 345.871C532.829 334.731 508.032 316.909 496.542 285.162C490.495 268.458 486.862 251.748 490.495 233.926C494.124 218.887 501.383 206.078 511.664 194.382C532.832 170.432 552.185 145.925 569.725 119.192C574.563 111.395 579.402 104.154 586.054 97.4707C595.731 86.8884 607.223 80.2051 622.342 80.2051H624.154C646.532 80.7618 665.28 91.3441 681.006 105.825C696.125 119.193 705.198 136.458 714.27 153.166C726.971 176.558 743.3 197.723 763.863 214.988L854.584 290.178C875.147 306.887 898.13 318.026 925.345 318.026H931.393C946.514 317.469 959.818 313.57 970.706 301.875C977.358 294.634 982.196 286.836 987.035 278.483C997.922 257.875 1007.6 236.711 1021.51 217.217C1031.19 203.293 1042.68 191.04 1058.4 182.685C1069.29 176.558 1080.78 172.659 1092.88 172.659C1100.41 172.53 1107.88 174.057 1114.65 177.115C1121.68 179.935 1128.54 183.095 1135.21 186.583C1149.13 194.381 1163.03 203.292 1178.15 209.976C1193.88 217.216 1210.21 221.114 1226.54 221.114C1233.66 221.199 1240.78 220.451 1247.7 218.887C1279.76 212.76 1302.14 190.483 1307.58 158.732C1310 145.365 1309.39 131.999 1307.58 118.631C1304.56 91.3399 1285.81 72.4035 1259.8 67.391C1238.63 62.9353 1217.46 64.0494 1196.29 62.3786C1186.62 61.8219 1177.55 62.3786 1167.87 61.2645C1144.29 57.9228 1123.72 48.4546 1109.21 28.9609C1103.82 21.652 1099.36 13.8044 1095.9 5.56874C1094.6 3.33815 1092.73 1.42908 1090.45 0.00244141H1025.13C1023.92 1.11658 1022.71 2.78732 1022.71 4.45817C1022.71 8.91392 1021.5 13.9264 1021.5 18.3821C1021.5 37.3185 1022.71 56.2549 1026.34 75.1912C1028.76 87.4443 1025.74 98.5833 1019.69 109.723C1011.86 123.033 1004.99 136.801 999.125 150.938C989.448 172.659 980.98 195.495 969.49 216.659C962.837 229.47 954.974 241.166 944.088 251.748C933.807 261.772 921.711 267.343 907.8 267.343H905.38C892.68 266.786 881.189 262.331 869.697 256.203C849.134 243.951 830.385 230.027 811.032 216.103C795.736 205.453 781.923 193.106 769.906 179.343C755.996 163.192 746.923 144.811 738.457 125.876C725.76 94.6843 706.406 67.9513 683.424 44.0025C673.143 32.8635 663.465 21.167 659.837 6.12975C659.232 3.34476 657.418 1.67392 655.603 0.0031757H581.213C579.398 1.67392 577.584 3.34476 576.374 5.57304C570.326 20.0536 560.045 31.1934 547.345 40.1048C532.225 50.6871 517.105 61.2694 503.799 73.5225C485.655 90.2314 469.324 109.168 454.81 129.218C442.715 146.483 428.199 161.522 410.056 173.775C401.23 180.254 392.942 187.328 385.258 194.94C365.904 213.876 348.97 234.484 330.826 253.977C319.939 266.787 309.657 279.597 302.4 294.078C286.676 323.596 282.442 355.9 280.627 388.76C279.418 411.038 283.047 432.76 288.49 454.481C293.328 470.632 296.957 486.785 296.353 504.05C295.748 529.671 288.49 554.177 273.976 575.898C259.461 597.62 238.897 606.531 214.1 606.531H209.865C191.722 605.974 174.182 600.961 157.853 592.607C142.733 585.367 129.428 575.898 115.517 566.43C84.0668 543.594 48.3839 530.228 10.2815 523.544C8.46713 523.544 6.65281 522.43 4.83847 522.43C3.05127 522.385 1.31549 522.984 0 524.099V584.253C1.20981 585.368 2.41886 586.482 4.83847 586.482H5.44299C10.886 586.482 15.7245 587.596 21.1674 587.596C33.6673 588.045 46.0589 589.915 58.0602 593.166C78.0185 598.178 96.1627 607.646 114.911 615.443C145.151 628.253 175.996 636.051 208.655 636.051C217.354 636.029 226.043 635.471 234.662 634.38C262.483 631.038 283.046 617.114 297.561 594.279C311.471 572 319.334 547.493 324.777 522.431C328.405 506.279 329.616 489.571 327.196 472.861C324.777 458.938 321.147 445.014 317.519 431.09C312.076 408.812 310.261 387.09 313.284 364.254C319.333 320.254 342.315 287.394 381.023 266.227C390.7 261.214 399.771 258.429 408.238 258.429C420.335 258.429 431.221 263.999 441.502 277.366C451.784 289.619 459.646 302.986 468.114 316.353C485.652 341.973 508.635 360.352 537.061 373.161C555.81 381.516 575.163 387.642 593.912 394.883C624.152 407.136 644.11 428.301 649.553 460.604C652.066 475.898 653.079 491.37 652.578 506.832C652.486 512.847 653.301 518.845 654.996 524.655C658.021 536.351 665.883 543.591 678.583 545.262C683.598 545.889 688.646 546.263 693.706 546.381H700.963C743.299 546.381 774.748 583.698 768.096 624.913C763.861 649.418 754.185 671.697 744.508 694.536C736.645 711.801 728.178 729.068 722.13 747.447C716.084 765.827 716.083 783.649 728.179 800.358C734.227 808.712 742.09 815.396 749.951 821.522C757.209 825.421 762.652 832.662 771.725 835.447L771.728 835.439Z" fill="#292929" />
		<path d="M5.44299 329.722C4.23318 329.722 3.02414 329.722 2.41886 328.608V294.634C3.62866 294.077 4.23318 293.519 6.04751 293.519H13.9101C20.5629 293.519 26.6112 294.076 33.264 294.076C44.1508 294.076 59.2707 293.519 73.7854 288.506C101.001 279.595 121.565 262.886 136.685 236.709C146.966 218.886 153.015 197.723 154.829 171.545C157.247 155.951 156.643 140.356 155.434 124.205C154.829 106.939 154.223 91.3441 149.99 75.1919C146.361 61.268 137.293 51.7998 123.378 46.7867C107.048 41.7742 89.509 40.1034 74.3891 38.4326C62.8994 37.8752 51.4073 37.3185 40.5214 37.3185H22.9826C18.3376 37.2259 13.6911 37.4118 9.07243 37.8752H6.04829C4.23395 37.8752 3.62943 37.3185 2.41963 36.761V2.22999H188.7C195.464 5.93872 203.205 7.86546 211.077 7.7998C215.374 7.79149 219.65 7.22909 223.778 6.12901L231.035 4.45817C234.722 3.98223 238.363 3.23745 241.922 2.23062H298.774C299.377 3.34476 298.774 4.45817 296.959 6.68645C288.185 17.4777 277.563 26.8831 265.51 34.5343C261.276 36.7618 257.647 39.5467 253.413 41.7749C243.132 47.9015 232.85 54.0281 223.173 61.2688C209.867 71.2944 200.796 85.2182 194.143 105.825C188.7 123.091 186.886 140.914 185.677 158.737V160.407C182.652 187.14 177.814 216.103 162.694 242.837C157.856 251.748 151.202 260.102 144.55 267.9C118.544 297.975 84.6748 316.912 42.9433 324.709C32.6618 326.38 21.1705 328.051 6.65512 329.721H5.44299M5.44299 331.949H7.25733L43.5454 326.937C84.6713 319.139 119.149 300.759 146.36 269.013C153.013 261.215 159.666 252.304 164.505 243.393C179.625 217.771 185.066 189.366 187.488 160.407C189.302 142.027 191.117 124.205 196.56 106.382C202.003 89.6732 209.865 74.0785 224.381 62.9395C237.686 52.9139 252.203 45.1166 266.112 36.2058C278.812 28.407 289.095 18.9388 298.162 7.7998C300.582 5.57231 303.001 3.34403 299.977 0.00244141H241.315C235.266 2.22999 229.22 2.22999 223.171 3.90146C219.26 5.04088 215.177 5.60472 211.076 5.57231C203.404 5.56203 195.881 3.63722 189.302 0.00244141H4.23395C0.60452 0.00244141 0 0.559144 0 3.90146V37.8752C0.649226 38.7918 1.55158 39.5328 2.61446 40.0221C3.67735 40.5116 4.86249 40.7318 6.04829 40.6601H9.07243C13.6911 40.1968 18.3376 40.0108 22.9826 40.1034H40.5214C52.0126 40.1034 62.8986 40.1034 74.3899 41.2175C90.7196 42.8883 107.049 44.5592 122.774 49.5716C136.08 54.0273 144.546 62.9388 147.571 76.3053C151.804 92.4575 152.409 108.609 153.014 124.761C154.223 140.356 154.828 155.951 153.618 172.102C151.804 194.938 146.965 216.659 135.474 236.709C121.564 260.658 101.606 277.924 73.7854 286.836C60.4797 291.291 47.1742 292.405 33.8685 292.405C26.006 292.405 18.7486 291.849 10.886 291.849C9.07165 291.849 7.86184 291.292 6.04751 291.292C4.92447 291.238 3.80205 291.41 2.7579 291.794C1.71373 292.179 0.772742 292.767 0 293.519C0 305.773 0 317.469 0 329.722C0.689707 330.421 1.52985 330.98 2.46693 331.364C3.40402 331.747 4.41754 331.947 5.44299 331.95V331.949Z" fill="#292929" />
		<path d="M323.568 833.215C325.382 819.29 329.616 805.367 337.477 788.101C346.549 768.051 358.646 749.114 370.138 730.735L381.024 714.025L382.234 711.798C391.911 696.203 402.193 680.051 413.683 665.013C440.295 632.153 470.535 614.326 506.216 609.317C511.231 608.691 516.278 608.32 521.336 608.203C541.899 608.203 558.834 614.887 572.14 628.254C580.606 636.608 584.841 647.747 588.469 658.33C595.726 677.266 599.356 696.76 603.589 716.253L604.799 720.709C610.847 750.228 619.919 776.405 632.62 800.912C637.89 811.198 641.751 822.05 644.111 833.215H592.099C590.89 832.1 589.681 830.431 589.681 828.759L589.076 825.417C586.052 804.811 582.424 783.646 581.213 763.038L580.609 755.24C579.399 741.317 578.795 727.393 576.375 712.911C573.35 695.089 568.512 674.481 554.603 657.216C543.715 643.848 529.201 636.051 511.057 634.937H505.614C485.656 634.937 466.907 642.734 448.158 658.887C432.434 672.254 421.547 689.52 412.475 706.227C404.008 720.708 395.541 734.632 387.074 748.556C381.631 757.468 376.793 766.38 371.35 774.734C359.859 794.227 353.205 809.822 349.577 825.973C348.973 829.315 348.367 830.986 346.553 832.101H323.568M321.149 835.442H346.551C350.179 833.772 350.784 830.986 351.389 827.644C355.623 809.822 363.484 793.112 372.557 777.518C386.467 754.125 400.378 731.847 413.682 708.455C423.36 691.19 433.642 674.48 449.366 661.67C465.696 647.188 483.841 637.72 505.613 637.72H511.056C527.99 638.834 542.506 645.517 553.392 658.885C566.697 675.036 571.535 693.973 574.56 713.467C576.98 729.619 578.189 746.327 579.398 762.48C581.213 784.757 584.237 806.479 587.866 828.756C588.321 831.107 589.594 833.258 591.495 834.883H647.74C645.343 822.69 641.066 810.874 635.04 799.795C621.734 774.732 613.267 747.997 607.219 720.149C602.984 698.985 598.752 677.82 591.495 657.77C587.26 646.63 583.027 635.491 574.56 627.137C559.44 612.101 541.296 606.531 521.943 606.531C516.683 606.647 511.435 607.019 506.219 607.646C467.512 612.658 436.666 633.823 412.474 664.455C399.773 679.493 389.491 696.202 379.21 712.911C364.09 737.417 347.155 760.806 335.664 786.987C328.407 802.582 322.963 818.176 321.149 835.442Z" fill="#292929" />
		<path d="M96.7679 833.215C94.8117 832.092 92.9876 830.786 91.325 829.316C81.6479 820.404 70.1567 815.392 55.0406 814.278C51.412 814.278 47.7833 813.721 44.1539 813.721C36.8965 813.721 29.6384 814.278 22.9856 814.835L16.9373 815.392C15.6967 815.304 14.4513 815.495 13.3087 815.948C11.4944 815.948 10.2846 816.505 8.47023 816.505C6.05138 816.505 3.63176 815.948 2.42194 814.834V740.202L9.07475 739.088L36.2882 734.635C41.2993 733.987 46.348 733.614 51.4073 733.519C68.9468 733.519 85.8812 738.531 101.606 749.113C127.612 765.823 146.965 786.986 159.061 812.607C162.086 819.29 164.504 826.53 166.924 833.772H96.7679M96.1665 835.44H170.557C168.138 827.085 165.718 818.731 162.09 810.933C148.785 783.642 128.826 762.478 104.029 746.326C87.6962 735.747 70.7613 730.734 52.0126 730.734C46.7534 730.849 41.5046 731.222 36.2882 731.848C24.1923 734.076 12.0958 735.747 0 737.417V814.835C2.41886 817.062 5.44299 817.62 8.46713 817.62C11.4913 817.62 13.9101 817.063 16.9343 817.063C26.006 816.506 35.0783 815.949 44.15 815.949C47.7906 815.856 51.4333 816.042 55.0406 816.503C68.3463 817.617 80.442 821.515 89.5145 830.984C91.9332 832.655 93.7484 834.326 96.1672 835.44H96.1665Z" fill="#292929" />
		<path d="M1509.59 143.142C1506.56 139.243 1503.53 135.343 1501.11 131.445C1499.3 128.66 1497.48 125.875 1495.67 123.647L1491.43 118.635C1484.78 109.724 1477.53 100.255 1469.06 91.9013C1455.76 79.0915 1438.21 69.0658 1418.26 62.3827C1409.79 59.5977 1401.32 56.8128 1392.86 54.5853C1384.99 52.357 1377.13 49.5721 1369.26 47.3439C1348.71 40.6606 1335.4 23.3943 1334.19 2.23048H1383.18C1386.78 3.95272 1390.05 6.2108 1392.86 8.9137C1401.93 16.7111 1412.2 20.6101 1423.69 24.5084C1427.93 26.1793 1432.77 27.2934 1437 28.9642C1451.52 33.4199 1466.03 38.4324 1479.34 45.6731C1489.62 51.2429 1498.69 58.4829 1506.56 64.6094C1507.71 65.6993 1508.54 67.041 1508.97 68.5085C1509.57 69.6225 1509.57 70.1792 1510.19 71.2934V143.142M1512 149.268V70.7367C1510.19 67.9518 1509.59 65.1668 1507.16 62.9394C1498.69 56.2561 1489.62 49.0154 1479.94 44.003C1462.41 33.9774 1443.05 28.9649 1423.69 22.8383C1412.81 18.9393 1401.93 15.5977 1393.46 7.80029C1389.83 5.01536 1386.81 2.23048 1382.57 0.559632C1365.04 0.00292837 1347.49 0.00292969 1330.56 0.00292969C1331.16 22.8383 1345.08 41.7747 1367.45 49.0154C1383.78 54.5853 1400.71 59.041 1417.04 64.0534C1435.93 70.1076 1453.09 80.0073 1467.25 93.0154C1477.53 102.484 1485.39 113.623 1493.26 124.205C1499.3 133.116 1504.75 142.028 1512 149.268Z" fill="#292929" />
		<path d="M171.158 833.215C170.453 832.926 169.852 832.458 169.424 831.866C168.996 831.275 168.759 830.583 168.739 829.873C162.692 809.266 151.806 790.886 135.475 773.064C119.751 756.355 103.421 744.66 84.6726 737.419C74.9956 733.52 64.7142 731.849 52.6184 731.849C45.3264 731.919 38.0496 732.478 30.8456 733.52C26.6117 734.077 22.3785 735.191 17.54 735.748C13.9114 736.304 9.67741 737.418 6.04875 737.975H4.23055C3.9022 738.012 3.56891 737.982 3.25502 737.886C2.94112 737.789 2.65454 737.63 2.41622 737.418V587.039H3.02074C38.0991 587.039 70.7586 594.836 102.208 610.43C130.029 624.355 160.27 632.709 191.114 636.051C197.766 636.608 204.419 637.165 210.468 637.165C224.983 637.165 238.289 635.494 250.384 631.595C269.739 626.026 284.859 613.772 295.745 595.95C312.074 569.216 321.751 539.141 326.589 504.608C328.403 489.57 327.193 473.975 322.354 453.922C321.749 448.908 320.54 444.453 319.936 440.554C316.911 429.972 313.888 419.39 312.678 408.807C307.84 362.58 317.517 325.82 342.918 296.301C359.248 277.366 374.973 266.225 392.513 260.656C399.165 258.429 405.213 257.315 410.052 257.315C421.543 257.315 430.615 262.327 441.501 275.138C448.758 283.492 455.412 293.517 461.459 302.985C466.902 311.34 472.347 319.695 478.394 327.492C489.885 341.973 504.4 354.226 523.149 364.251C538.269 373.162 555.204 379.29 570.928 384.859C578.185 387.644 586.048 390.428 593.911 393.77C618.103 403.795 633.828 417.162 642.295 436.099C648.344 448.908 650.158 463.39 651.972 475.643C652.576 481.77 652.576 488.454 652.576 494.58C652.576 502.377 652.576 510.174 653.787 517.972C657.415 539.693 667.696 544.149 687.051 545.263C690.489 545.171 693.929 545.357 697.333 545.82C705.194 545.82 711.848 545.82 719.105 548.047C747.53 555.288 768.698 582.578 769.303 611.54C769.303 633.262 762.046 653.869 754.787 671.136C749.949 682.274 745.111 692.856 740.272 703.439C736.039 712.35 732.409 721.818 728.177 730.73C722.129 745.211 719.105 756.907 718.499 768.046C717.894 779.185 721.523 789.767 730.595 801.463C735.434 808.147 742.086 813.16 748.135 818.173C750.554 820.4 753.578 822.628 755.998 824.856C759.021 827.641 762.046 830.426 765.675 833.21H648.945L648.34 832.653C647.131 831.539 647.131 830.982 646.526 830.426C642.897 815.945 636.245 802.578 629.592 789.211L628.382 787.54C615.681 762.477 609.633 735.185 604.795 711.794C600.561 692.3 596.328 671.137 587.861 651.085C576.369 622.68 555.806 608.756 522.539 607.643H518.305C490.484 607.643 464.478 617.668 436.054 639.947C418.515 653.87 405.814 671.136 391.903 692.858L387.065 701.212C374.364 721.262 361.059 741.871 348.358 762.477C335.053 784.756 326.586 805.92 321.747 827.085C321.143 829.312 320.537 831.54 319.329 833.211H285.463C284.859 832.097 284.859 830.427 285.463 828.199L286.068 827.085C289.407 814.881 293.859 802.959 299.378 791.446C327.199 734.637 353.205 693.418 382.84 657.776C413.08 622.131 451.182 595.954 496.543 579.244C511.058 574.232 526.783 569.776 539.484 566.435C561.256 560.865 575.771 547.499 584.844 526.334C593.916 506.283 598.754 489.018 599.359 471.751C599.963 452.258 592.706 436.107 576.376 423.853C564.885 414.385 551.579 408.259 538.879 401.576L533.436 399.347L530.412 397.676C515.292 389.879 500.172 382.082 486.262 372.614C474.166 364.26 462.674 353.12 449.37 338.64C442.728 331.065 435.447 323.985 427.593 317.467C418.522 310.227 408.239 306.328 397.353 306.328C383.444 306.328 370.138 313.012 358.646 325.264C342.922 343.088 336.874 364.808 339.898 394.887C341.108 407.698 344.132 420.508 348.365 434.432C355.623 458.381 356.227 482.888 350.18 507.95C341.106 548.049 330.825 579.241 318.125 607.089C306.03 633.823 284.861 649.975 252.803 656.101C240.707 658.328 228.006 659.444 215.305 660.558H211.677L203.814 661.114C189.904 662.228 174.784 663.342 160.873 667.241C157.244 668.355 151.801 670.026 146.358 673.924C138.495 680.051 136.077 687.848 137.891 697.874C140.309 708.456 145.753 717.368 149.986 724.051C157.243 735.19 165.71 745.216 173.573 755.24C177.807 760.253 181.436 765.266 185.669 769.721C198.37 786.43 211.07 804.81 217.723 826.53V827.644C218.328 829.872 218.933 831.543 218.328 832.656H171.158M170.553 835.441H220.148C222.566 832.657 221.357 829.315 220.148 826.53C213.494 804.808 201.399 786.429 187.488 768.606C175.392 753.568 162.692 739.088 151.806 722.935C146.2 715.101 142.107 706.433 139.709 697.315C137.895 688.403 139.709 681.163 146.967 675.594C151.201 672.252 156.038 670.582 160.877 668.911C177.207 664.455 194.141 663.898 211.076 662.784C224.985 661.67 238.896 660.555 252.201 658.328C283.046 652.201 306.028 637.164 319.333 608.202C333.849 575.898 343.526 542.48 351.993 508.506C358.054 483.868 357.431 458.236 350.179 433.873C347.154 421.063 343.526 407.696 342.316 394.329C339.897 369.265 343.526 345.873 361.065 326.38C371.348 314.686 384.048 307.999 397.353 307.999C407.03 307.999 416.708 311.341 425.779 318.581C433.499 325.22 440.771 332.288 447.552 339.745C459.043 351.999 471.138 364.252 485.05 374.276C499.565 384.859 515.894 392.657 532.224 401.01C546.74 408.251 561.86 415.492 574.56 425.517C589.68 437.213 597.542 452.808 596.332 471.744C595.727 490.681 590.284 507.947 583.027 525.213C574.56 544.706 560.649 558.074 538.877 564.2C524.362 568.099 509.847 571.998 495.936 577.01C450.576 593.163 411.87 619.339 381.024 656.101C346.55 696.76 320.544 742.43 296.957 790.328C291.514 802.024 286.676 813.721 283.047 826.53C283.047 829.315 281.838 832.657 284.256 835.441H320.544C322.963 833.214 323.568 830.429 324.173 827.644C329.011 804.808 338.083 783.644 350.18 763.037C364.089 739.645 379.209 716.252 394.33 693.414C406.425 674.478 419.731 655.541 437.875 641.06C461.462 622.68 487.469 609.313 518.313 609.313H521.942C555.206 610.427 574.559 624.351 585.446 651.085C593.309 670.579 598.147 691.185 601.775 711.24C607.218 737.417 613.267 763.593 625.362 787.543C632.015 801.467 639.273 815.391 642.902 830.429C643.507 832.657 645.321 833.771 646.531 834.885H770.515C765.677 830.986 761.443 826.531 756.605 822.632C748.137 814.835 738.461 808.708 731.203 799.239C723.946 789.771 719.108 779.189 719.713 766.936C720.316 754.126 724.551 741.873 729.39 730.176C737.856 710.126 747.534 690.632 756 670.582C763.863 651.088 770.516 631.595 770.516 610.427C769.912 580.351 748.138 552.503 718.503 545.262C707.616 542.477 696.73 543.591 685.844 543.035C666.49 541.921 658.628 537.465 655 517.414C652.581 503.491 655 489.01 653.185 475.085C651.371 461.161 648.951 447.794 643.508 434.984C635.041 413.264 616.897 400.453 595.124 391.542C571.537 382.074 546.74 374.832 524.363 362.58C507.429 353.112 492.308 341.415 480.213 325.82C466.906 309.116 457.229 290.179 443.319 273.472C433.037 261.774 423.36 255.091 410.054 255.091C404.611 255.091 398.564 256.204 391.91 258.432C370.743 264.559 355.018 278.483 341.106 294.635C312.682 327.495 306.028 367.039 310.867 408.812C312.682 423.85 317.52 438.33 321.148 453.368C324.777 470.077 327.197 486.229 325.383 503.495C321.148 535.798 312.077 566.431 295.142 594.279C284.861 610.988 270.346 623.242 250.992 628.811C238.298 632.602 225.024 634.483 211.679 634.381C205.631 634.381 198.979 633.824 192.326 633.267C161.359 630.477 131.325 621.951 104.026 608.204C73.2358 592.74 38.7007 584.692 3.62912 584.81H0.60498V737.975C1.8148 739.646 3.02384 740.203 4.83894 740.203H6.65327C15.1204 739.089 22.983 737.418 31.4502 736.304C38.4452 735.219 45.5247 734.66 52.6184 734.634C63.1985 734.594 73.6823 736.487 83.4627 740.203C102.817 748 119.146 760.253 133.057 775.292C148.176 791.446 160.272 809.823 165.72 830.987C166.929 832.658 168.138 834.329 170.558 835.443L170.553 835.441Z" fill="#292929" />
		<path d="M881.19 833.215C883.004 828.202 885.424 822.632 887.238 817.619C895.101 797.013 903.568 775.848 909.011 753.57C912.036 740.202 915.664 726.278 921.107 713.468C924.736 704 930.784 695.646 938.042 688.405C943.484 683.393 948.928 677.822 954.371 672.81L964.048 663.899C984.006 644.963 995.498 622.127 997.916 595.393C1001.55 560.861 1007.59 525.215 1013.04 495.14C1015.45 481.216 1016.67 466.736 1017.87 453.368L1018.48 444.457C1019.69 430.533 1020.9 414.381 1026.34 399.901C1032.99 381.52 1050.53 369.268 1069.89 369.268C1072.32 369.176 1074.76 369.362 1077.14 369.824C1100.73 373.723 1118.27 387.089 1132.79 412.153C1142.46 428.306 1147.3 447.242 1148.51 471.192C1148.51 476.204 1149.11 481.774 1149.11 486.786C1149.72 501.267 1150.32 516.862 1153.35 531.343C1160.6 563.646 1178.14 589.824 1205.97 608.204C1209.59 610.432 1213.22 613.216 1217.46 615.444C1224.71 619.9 1231.36 624.912 1238.63 629.368C1256.17 642.177 1265.84 658.887 1267.05 680.055C1268.26 691.751 1267.65 701.219 1265.84 709.574C1263.42 722.941 1254.96 731.851 1241.04 736.307C1233.79 738.535 1225.32 739.648 1214.43 739.648H1188.43C1182.39 739.648 1175.12 739.648 1167.27 740.763C1147.3 742.433 1127.35 749.675 1106.78 761.928C1085.62 774.737 1069.89 788.105 1059.01 803.699C1052.38 812.778 1047.28 822.729 1043.89 833.215H985.823C984.614 832.101 984.614 830.987 984.614 828.759V818.176C984.614 812.05 984.614 805.923 983.405 799.797V798.683C982.8 794.227 981.59 789.215 975.542 786.986C974.399 786.532 973.154 786.341 971.913 786.429C967.074 786.429 963.445 789.772 960.422 792.556C950.141 802.581 942.882 813.163 938.044 824.859L937.439 826.531C936.23 829.316 935.021 832.101 933.207 833.214H881.19M877.565 835.443H931.996C936.231 833.215 937.439 829.316 938.65 825.418C943.647 813.689 951.271 803.061 961.027 794.229C963.445 791.444 967.076 788.659 970.704 788.659C971.745 788.621 972.782 788.812 973.728 789.216C979.171 790.886 979.171 795.899 980.38 800.354C982.195 809.822 980.985 818.733 981.591 828.202C981.591 830.987 981.591 834.329 984.011 836H1045.1C1048.12 824.861 1053.56 814.834 1060.22 805.367C1072.31 788.1 1089.24 775.29 1107.39 764.152C1125.53 753.013 1144.89 745.215 1166.66 742.987C1173.92 742.43 1180.57 742.43 1187.83 742.43H1213.83C1223.03 742.452 1232.18 741.328 1241.04 739.088C1255.56 734.633 1264.64 725.722 1267.65 710.684C1269.48 700.658 1269.48 690.634 1268.86 680.608C1267.05 658.329 1257.37 641.063 1239.23 628.254C1228.95 620.457 1217.46 613.773 1206.57 606.532C1178.76 588.153 1161.81 563.09 1155.16 530.786C1150.94 510.737 1151.54 490.686 1150.32 470.632C1149.11 448.911 1144.88 428.861 1134 410.477C1121.3 388.203 1103.76 371.495 1076.54 367.039C1073.95 366.577 1071.32 366.391 1068.68 366.483C1048.12 366.483 1029.37 379.292 1022.72 398.23C1017.88 412.71 1016.06 428.306 1014.85 443.343C1013.64 460.051 1012.43 477.317 1009.41 494.026C1003.36 527.444 997.919 560.861 994.29 594.279C991.871 620.456 980.38 643.292 961.026 661.114C952.559 669.468 943.486 677.267 935.624 685.621C928.058 693.263 922.109 702.141 918.085 711.797C912.642 725.165 909.618 738.531 905.989 752.456C899.942 781.417 887.846 808.151 877.565 835.443Z" fill="#292929" />
		<path d="M908.409 267.343C903.716 267.301 899.046 266.74 894.5 265.672C884.823 263.445 875.145 259.546 864.863 252.863C840.673 237.268 815.27 220.559 792.893 201.622C774.749 186.585 761.444 170.433 751.767 152.054C748.14 144.813 744.51 137.016 740.881 129.774C735.438 118.636 729.994 106.939 723.342 95.8003C714.171 80.7679 703.435 66.5916 691.287 53.4711C683.851 45.9265 676.981 37.9249 670.724 29.5216C665.28 22.2816 661.046 13.3701 658.626 2.23048H733.622C735.436 3.34451 736.041 5.01536 736.647 7.80029V8.9144C743.299 41.7747 752.976 76.8633 765.072 115.851C771.725 136.459 782.006 154.838 795.312 168.761C803.676 177.684 813.464 185.384 824.342 191.597C844.301 202.736 861.84 208.862 879.382 211.091H884.22C899.945 211.091 912.646 200.508 915.065 184.914C916.88 174.332 916.275 163.749 915.065 153.724L914.461 148.155C910.832 109.168 914.461 75.1924 926.557 44.5597C930.79 32.8632 938.047 22.8383 944.701 12.256L946.515 8.9144C948.329 6.1295 949.539 3.34451 952.564 1.67377H1022.72C1022.82 4.28525 1022.62 6.89915 1022.11 9.4711C1022.11 11.6986 1021.51 14.4836 1021.51 16.7118C1021.51 38.4331 1022.72 57.3695 1026.35 74.6357C1028.77 86.3321 1026.35 97.4711 1020.3 108.053C1009.41 126.433 1000.95 145.926 993.085 165.42L991.874 168.205L989.455 173.775C980.384 194.939 971.311 217.218 957.401 236.711C950.144 246.736 943.49 253.42 935.628 258.99C927.161 264.559 918.089 267.344 908.412 267.344M908.412 269.571C918.887 269.607 929.086 266.476 937.443 260.66C946.514 254.534 953.772 246.736 959.82 237.824C974.939 216.66 984.616 192.711 994.294 169.318C1002.76 149.268 1011.23 129.217 1022.11 110.281C1028.77 99.142 1031.19 88.0022 1028.77 75.1924C1025.14 56.2561 1023.93 36.7622 1023.93 17.2685C1023.93 11.6986 1025.14 5.57206 1025.14 0.00292969H951.954C947.116 2.78781 945.302 7.24359 942.883 11.1419C935.625 21.7242 928.367 32.3065 924.135 44.0022C911.433 77.9767 909.015 113.065 912.039 148.711C913.249 160.963 914.458 172.659 912.644 184.913C910.224 199.951 898.733 209.42 884.218 209.42H879.983C860.63 207.191 842.485 199.393 825.552 189.926C814.88 183.902 805.289 176.385 797.126 167.646C783.215 152.609 773.539 134.786 767.491 115.293C756.604 80.2042 746.322 44.5589 739.065 8.9137C737.856 5.01536 737.856 1.67377 733.622 0.00292969H654.999C657.417 11.1419 661.651 21.7242 668.304 30.6357C674.957 38.9898 681.609 46.7878 688.867 54.5853C700.963 67.3951 711.849 81.319 720.316 96.357C731.203 114.737 739.065 134.229 748.742 152.61C759.023 172.103 773.539 188.813 790.474 202.736C813.456 221.673 838.253 238.382 863.049 254.534C872.059 260.684 882.356 265.046 893.289 267.344C898.161 268.854 903.27 269.607 908.409 269.571H908.412Z" fill="#292929" />
		<path d="M1507.76 835.442V833.214H1368.66C1372.89 823.745 1380.76 816.505 1392.25 811.493C1403.14 806.48 1415.84 803.695 1427.33 800.911C1430.96 800.354 1434.58 799.24 1437.61 798.683C1446.72 796.367 1455.62 793.386 1464.22 789.772C1484.18 781.417 1497.48 766.379 1503.53 744.658C1511.4 714.582 1505.95 686.735 1487.2 661.114C1481.15 652.761 1472.69 646.077 1460.59 639.393C1442.45 629.369 1422.49 621.57 1394.67 614.329C1391.03 613.215 1387.41 612.658 1384.38 611.544C1372.29 608.759 1359.59 605.417 1348.09 600.961C1325.11 592.05 1311.81 577.012 1308.79 554.734C1302.74 514.633 1309.39 481.772 1329.35 454.481C1343.9 434.873 1363.41 418.817 1386.19 407.697C1400.11 401.014 1414.63 393.774 1428.53 387.646C1438.21 383.191 1448.49 378.178 1458.17 373.723C1472.85 366.811 1486.65 358.405 1499.29 348.66C1501.26 346.931 1503.08 345.069 1504.74 343.09L1510.18 338.078V443.899C1509.57 443.899 1509.57 444.456 1508.97 444.456C1508.37 444.456 1507.16 444.456 1506.56 443.899H1505.95C1502.32 443.343 1498.69 442.229 1495.07 441.672C1483.57 438.887 1471.47 436.102 1459.38 435.545C1453.55 435.081 1447.7 434.895 1441.84 434.989C1412.2 434.989 1388.02 442.229 1368.06 456.709C1346.89 472.305 1336 492.912 1334.79 517.419C1333.58 547.495 1348.09 568.658 1375.91 579.799C1396.35 587.903 1418.37 592.073 1440.63 592.051C1454.52 592.067 1468.35 590.381 1481.76 587.039C1486.67 585.805 1491.53 584.318 1496.27 582.583C1499.29 581.469 1502.92 580.356 1505.94 579.242H1506.56C1507.76 579.242 1508.37 578.685 1508.97 578.685H1509.57V833.771H1507.76V835.442ZM1507.76 835.442C1512 835.442 1512 834.328 1512 830.429V576.456C1510.78 575.342 1509.57 574.786 1508.97 574.786C1507.76 574.786 1506.55 575.342 1504.74 575.9C1496.88 578.127 1489.01 581.469 1480.55 583.697C1467.33 586.966 1453.71 588.65 1440.02 588.709C1418.25 588.709 1397.08 584.254 1376.52 576.456C1348.09 565.317 1336 543.596 1336.6 516.301C1337.21 491.795 1348.7 472.301 1368.66 457.263C1390.43 441.112 1415.22 436.099 1440.63 436.099C1446.27 436.006 1451.93 436.192 1457.56 436.656C1473.28 437.77 1489.01 442.226 1504.13 445.567C1505.94 445.011 1507.15 445.567 1508.37 445.567C1509.06 445.526 1509.73 445.356 1510.36 445.07C1510.99 444.782 1511.54 444.384 1511.99 443.897V333.065C1505.94 335.849 1502.32 341.976 1496.88 345.874C1484.18 355.9 1470.27 363.698 1456.36 370.938C1432.16 382.634 1407.98 393.774 1384.38 405.47C1361.23 416.573 1341.48 432.851 1326.94 452.811C1304.55 483.443 1300.32 518.532 1306.37 554.734C1309.99 578.684 1324.51 594.278 1347.49 603.189C1362.61 608.759 1378.94 612.658 1394.67 616.557C1417.04 622.684 1439.43 629.924 1459.99 641.063C1469.66 646.633 1479.34 653.317 1485.39 662.228C1503.54 686.734 1508.98 714.025 1501.11 743.544C1495.67 764.152 1483.58 779.189 1463.62 787.543C1455.16 790.886 1446.08 794.228 1437.61 796.456C1421.89 800.355 1406.17 803.139 1391.65 809.823C1380.16 815.392 1370.48 823.189 1365.64 836H1437C1460 835.443 1483.58 835.443 1507.76 835.443V835.442Z" fill="#292929" />
		<path d="M30.8443 292.406C19.9577 292.406 10.886 291.849 2.41885 291.292V260.662C3.02338 260.105 3.62866 260.105 4.8377 260.105H7.25732C10.2815 260.662 13.9101 261.22 16.9343 261.776C26.6112 263.447 36.8926 265.118 47.1742 265.118H48.3839C78.0193 265.118 101.002 251.75 116.122 225.017C123.378 212.204 127.011 198.281 127.011 181.57C127.616 158.735 124.593 139.241 116.729 122.533C108.867 104.71 95.5612 91.9003 77.4172 85.217C65.3221 80.762 52.6179 78.5345 35.6828 77.4203H31.4497C24.1923 76.8636 16.3297 76.8636 9.07243 76.8636H6.65281C5.16137 76.8311 3.70381 76.4475 2.41885 75.7496V40.1043C12.7011 39.5476 22.3772 38.9902 30.8443 38.9902H48.9885C72.5756 38.9902 93.7438 41.2177 113.702 45.6735C121.565 47.901 129.426 50.1292 136.685 56.2557C146.361 64.0532 148.78 75.1922 150.595 86.3319C151.804 96.3575 152.409 106.939 153.014 116.965C153.116 122.179 153.519 127.384 154.223 132.559C155.433 147.391 155.433 162.285 154.223 177.116C149.385 225.572 128.822 259.547 90.1151 280.711C76.205 288.508 60.4797 292.408 43.5454 292.408H30.8443M30.8443 294.635H43.5454C60.4797 294.635 76.8095 290.179 91.325 282.381C133.055 259.547 152.41 222.787 156.038 177.116C157.249 162.099 157.249 147.019 156.038 132.003C155.435 116.965 154.829 101.37 152.41 85.7752C150.595 74.0788 148.176 62.9398 138.5 54.5856C131.243 48.4591 122.775 45.6742 114.307 44.0033C93.1393 38.9902 71.3665 37.3193 48.9885 37.3193H30.8443C20.5629 37.3193 10.2815 37.3193 0 38.4335V76.3062C1.81433 78.5337 4.23395 79.0912 6.65281 79.0912H9.07165C18.1434 79.0912 26.6112 79.6479 35.6828 80.2053C49.593 80.762 63.5039 82.9902 76.8087 88.0026C94.9528 94.6859 107.653 106.939 115.516 124.205C122.773 142.028 125.193 161.521 124.587 181.571C124.587 196.61 121.564 211.09 113.701 223.901C99.1852 248.964 78.0177 262.888 48.3786 262.888H47.7741C34.4684 262.888 21.1628 260.103 7.8572 257.876H4.83847C3.89193 257.831 2.9491 258.013 2.10138 258.403C1.25366 258.794 0.529809 259.38 0 260.103V293.521C10.2815 294.635 20.5629 294.635 30.8443 294.635Z" fill="#292929" />
		<path d="M1509.57 65.7242C1495.07 53.4711 1481.76 44.5597 1467.85 38.4331C1459.38 34.5341 1450.3 31.7498 1441.24 28.9649C1437.61 27.8508 1433.37 26.7374 1429.75 25.0659L1426.12 23.9525C1417.65 21.1675 1409.79 18.3826 1401.93 13.9269C1396.77 10.804 1392.09 7.05755 1388.02 2.78781H1510.19V65.7242M1512 70.7367V3.90195C1512 0.559632 1510.79 0.00292969 1507.76 0.00292969H1382.57C1387.32 6.151 1393.28 11.4378 1400.11 15.5977C1409.19 20.6101 1418.86 23.9525 1428.53 27.2941C1441.24 31.7498 1453.94 35.0915 1466.65 40.6613C1483.58 47.902 1498.09 58.4843 1512 70.7374V70.7367Z" fill="#292929" />
		<path d="M1225.93 189.369V187.141C1223.5 187.232 1221.06 187.046 1218.67 186.584C1199.32 184.357 1182.39 174.888 1166.06 157.065C1162.43 152.61 1158.79 148.154 1154.56 142.585C1150.33 136.458 1149.11 129.774 1150.33 121.42C1151.54 115.293 1156.98 111.952 1163.03 108.61C1175.73 102.483 1190.85 99.1417 1209.6 98.5844C1222.9 99.1411 1237.42 100.812 1249.51 109.167C1272.49 125.875 1271.89 154.837 1262.22 168.762C1253.75 181.015 1241.66 187.141 1225.93 187.141V189.369ZM1225.93 189.369C1241.66 189.369 1254.35 183.799 1264.03 170.433C1274.32 155.951 1274.92 125.318 1250.72 108.053C1238.63 99.141 1224.11 97.4703 1209.6 96.9136C1193.27 97.4703 1176.94 99.6985 1161.82 106.939C1155.78 110.281 1149.11 113.622 1147.91 121.42C1146.7 129.217 1147.91 137.015 1152.75 144.255C1156.38 149.268 1160 154.281 1164.24 158.736C1178.76 174.888 1195.69 186.584 1218.06 189.369H1225.93Z" fill="#292929" />
		<path d="M869.702 617.671C861.839 617.671 854.582 613.773 847.929 605.418C844.905 600.962 841.276 597.063 838.253 592.608C829.181 580.355 819.504 567.546 809.222 555.849C797.251 542.27 784.321 529.431 770.515 517.419C763.863 511.85 757.209 506.837 750.557 501.824C740.276 494.027 729.994 486.229 720.317 476.761C711.85 468.407 703.987 457.825 697.335 445.571C695.52 441.672 693.706 438.331 691.892 434.433C686.449 423.851 681.004 412.711 673.747 402.686C659.837 383.191 642.903 370.939 622.944 364.255C614.476 361.471 606.01 359.243 597.542 357.015L564.884 346.989C550.974 341.419 532.829 334.179 518.919 320.256C503.193 304.102 494.121 285.166 490.492 261.774C487.467 241.167 491.101 222.786 502.588 206.077C508.031 197.723 514.684 190.483 520.732 183.799C537.667 165.419 552.182 145.369 563.672 128.103C569.721 119.192 576.978 108.609 584.841 98.5844C594.518 86.3313 609.033 79.648 624.154 79.648C629.296 79.5701 634.414 80.3241 639.274 81.8756C665.28 89.673 685.238 104.711 699.753 128.103C703.987 134.787 707.616 141.471 711.849 148.154C718.502 159.292 724.55 170.989 733.017 181.572C747.533 200.507 765.071 216.103 780.191 228.356L785.03 232.255C800.754 245.066 817.084 257.876 832.81 271.799L836.438 275.141C849.139 285.724 861.839 296.862 876.959 305.217C892.683 314.129 909.619 318.585 926.553 318.585C932.444 318.552 938.318 317.992 944.092 316.914C957.397 314.687 968.284 307.445 977.96 294.635C982.011 289.018 985.454 283.048 988.242 276.812L991.871 267.344C1000.34 250.635 1009.41 232.812 1020.3 217.217C1031.18 201.622 1042.67 191.04 1055.37 183.243C1067.47 176.002 1079.57 172.104 1091.66 172.104C1101.94 172.104 1112.22 174.889 1122.51 179.901C1132.18 184.914 1142.47 190.483 1151.54 195.496C1158.19 199.394 1164.84 202.736 1171.49 206.635C1187.19 215.359 1205.17 219.98 1223.51 220.002C1258.59 220.002 1282.78 207.75 1297.9 182.13C1303.34 172.662 1306.37 162.079 1307.58 148.155C1308.79 132.003 1307.58 118.636 1303.95 105.826C1297.3 85.7753 1282.78 72.9655 1261 67.9531C1248.31 65.1682 1235 64.054 1222.3 63.4973L1215.05 62.9406C1208.99 62.9406 1202.94 62.3839 1196.9 62.3839C1182.99 62.3839 1169.08 62.3839 1155.16 58.4849C1130.97 52.3583 1112.22 37.8777 1100.73 16.1557C1098.32 12.2566 1096.5 7.8016 1094.69 3.34589C1094.08 2.78918 1094.08 1.67504 1093.48 1.11834H1140.05L1140.65 1.67504C1141.86 2.78918 1143.07 3.34589 1144.28 4.46003C1151.54 16.1564 1163.63 23.9538 1179.36 27.8521C1189.76 30.7323 1200.55 32.2327 1211.41 32.3079C1225.93 32.3079 1241.04 29.5229 1255.56 24.5105C1260.47 22.8397 1264.93 20.2421 1268.69 16.8849C1272.44 13.5276 1275.39 9.48491 1277.33 5.01662C1277.94 3.34589 1279.76 1.67504 1281.57 0.5609H1328.75C1329.95 2.23174 1330.56 4.46003 1331.16 6.68747C1334.79 27.8521 1348.09 41.2193 1371.08 49.0167C1377.73 51.2442 1384.99 52.9158 1391.64 55.1432C1398.9 57.3708 1406.76 59.599 1414.02 61.8265C1443.65 71.2948 1466.03 87.4469 1483.58 111.396C1488.41 118.079 1493.25 124.763 1498.69 130.89L1504.75 138.687C1505.95 140.358 1506.56 142.029 1507.76 143.699C1508.37 145.37 1508.97 146.484 1509.57 148.155V223.901C1490.23 240.609 1468.46 258.432 1449.1 278.483C1439.42 289.622 1429.75 300.761 1420.07 311.343C1417.04 315.243 1413.42 319.141 1410.39 323.04C1397.37 338.214 1383.22 352.543 1368.06 365.926L1359.59 373.166C1342.05 387.647 1324.51 403.242 1309.99 421.064C1290.04 446.127 1276.73 475.089 1270.68 508.507C1270.08 511.292 1269.48 514.077 1268.87 517.419C1267.05 529.671 1264.64 541.925 1259.8 553.621C1256.77 560.304 1251.33 568.66 1239.84 568.66C1237.38 568.56 1234.94 568.187 1232.58 567.546C1217.46 563.646 1205.97 554.735 1198.72 540.812C1191.45 527.444 1187.23 511.85 1185.41 491.799C1182.99 462.281 1178.15 428.306 1160.01 397.117C1139.44 362.029 1115.25 341.978 1083.8 334.181C1073.52 331.953 1063.24 330.282 1052.96 330.282C1044.01 330.351 1035.09 331.285 1026.35 333.066C1004.57 337.522 993.081 350.333 989.453 372.611C986.794 388.64 985.782 404.863 986.429 421.067C987.034 460.054 977.961 496.257 959.818 531.902L956.189 538.585C948.326 553.623 940.465 569.775 929.578 583.141C917.482 599.293 901.153 609.875 879.38 616.559C875.147 617.116 872.123 617.673 869.703 617.673M869.703 619.901C872.815 619.885 875.895 619.318 878.774 618.231C899.338 612.104 916.876 600.966 930.182 584.256C942.882 568.104 951.35 550.282 960.422 532.459C978.565 497.371 987.637 460.055 987.637 420.51C987.637 404.358 988.242 388.207 990.662 372.611C994.291 351.447 1004.57 339.751 1025.74 335.295C1034.48 333.514 1043.4 332.58 1052.35 332.51C1062.58 332.438 1072.77 333.751 1082.59 336.409C1117.67 345.322 1140.05 368.713 1157.59 398.232C1174.52 427.194 1179.96 459.498 1182.39 491.802C1183.59 509.067 1187.22 526.333 1195.69 541.927C1203.56 556.407 1215.65 565.877 1231.38 569.775C1234.39 570.332 1236.82 570.889 1239.84 570.889C1250.12 570.889 1257.99 565.32 1262.21 554.737C1268.27 540.256 1270.08 524.104 1273.1 509.066C1279.16 476.762 1291.25 447.8 1311.81 422.738C1328.75 402.13 1349.31 385.422 1369.26 368.155C1384.51 354.673 1398.85 340.351 1412.2 325.269C1424.91 310.232 1437.61 295.193 1451.52 281.27C1470.27 261.775 1490.83 244.51 1512 227.244V149.825C1510.19 146.484 1509.57 142.585 1507.16 139.8C1499.91 129.774 1492.64 120.863 1485.99 111.395C1467.85 86.8887 1444.26 70.1799 1415.23 60.7082C1400.71 56.2524 1386.81 52.354 1372.29 47.8983C1351.73 41.215 1337.82 28.9619 1334.19 7.24063C1333.59 5.01316 1332.98 2.22818 1330.56 0H1281.57C1279.16 1.11404 1277.33 3.34158 1276.13 5.56987C1271.89 14.4813 1265.24 20.0505 1255.56 23.3928C1241.65 28.2143 1226.89 30.6677 1212.02 30.6335C1201.39 30.7081 1190.8 29.3953 1180.57 26.7344C1166.66 22.8382 1154.56 16.155 1146.7 3.90185C1145.49 2.23101 1143.07 1.67431 1141.26 0.00283314H1090.45C1093.48 6.1294 1095.9 12.2559 1099.53 18.3825C1111.62 41.2179 1130.37 55.6986 1155.78 62.3825C1175.73 67.395 1195.69 65.1674 1215.65 66.2816C1230.77 67.3956 1246.5 67.9523 1261 71.294C1281.57 75.7497 1296.09 87.4462 1302.74 108.053C1306.97 121.421 1307.58 135.902 1306.37 149.268C1305.77 160.965 1303.34 172.104 1297.3 182.129C1280.97 209.42 1255.56 218.888 1225.33 218.888C1207.78 218.888 1190.24 213.876 1174.52 205.521C1158.19 196.609 1141.86 187.141 1124.93 178.787C1114.04 173.218 1103.16 170.433 1092.87 170.433C1080.17 170.433 1067.47 174.332 1055.38 181.572C1039.65 189.926 1028.16 202.18 1018.48 216.103C1005.18 234.483 995.5 255.09 985.218 275.697C982.154 281.631 978.721 287.395 974.937 292.964C967.074 303.546 956.793 311.899 942.882 314.129C937.313 315.205 931.64 315.765 925.948 315.799C909.015 315.799 893.289 311.343 877.564 302.989C861.235 294.078 847.929 281.825 834.019 270.128C817.085 255.091 798.941 241.166 781.401 226.686C763.863 212.763 747.533 198.281 734.227 180.459C721.525 163.749 712.454 144.814 701.567 126.99C686.447 103.598 666.489 88.0035 639.879 79.6495C634.811 78.096 629.495 77.343 624.154 77.422C608.43 77.422 593.31 84.6627 583.028 97.4725C574.561 106.384 567.908 116.409 561.256 126.434C547.95 145.928 534.644 164.864 518.92 182.13C512.265 189.367 505.612 196.609 500.169 204.406C488.678 222.23 484.444 241.167 488.073 261.774C491.702 284.61 500.774 304.66 517.104 320.812C530.409 334.179 546.739 341.976 564.277 348.104C583.026 354.787 602.38 358.686 621.733 364.812C642.902 371.495 658.626 384.862 671.931 402.685C681.608 416.052 688.261 431.09 696.124 445.571C702.13 457.394 710.086 468.291 719.71 477.874C734.831 493.469 753.579 504.608 769.909 518.532C783.819 530.229 796.52 543.039 808.617 556.405C822.526 572 834.622 588.708 847.324 605.418C852.766 615.443 860.628 619.898 869.701 619.898L869.703 619.901Z" fill="#292929" />
		<path d="M212.89 606.531C192.931 606.531 172.368 600.405 149.99 588.709C139.103 582.581 128.822 575.898 118.541 569.214C111.283 564.202 103.421 559.189 95.5581 554.177C71.3657 539.696 44.1508 530.227 6.04751 522.987L2.41885 522.43V466.178C16.9343 473.975 32.0542 481.216 47.1742 487.899C56.2457 491.798 64.7137 496.253 73.1808 500.152C93.1393 510.734 112.493 523.544 136.08 543.038C153.015 556.962 169.344 569.772 191.121 577.012C198.134 579.204 205.488 580.331 212.894 580.354C237.691 580.354 257.044 565.874 266.72 540.253C273.978 519.646 274.583 497.924 267.93 472.304C260.67 445.57 257.646 418.279 259.46 391.544C261.273 358.684 263.693 329.164 269.741 299.646C273.108 283.546 279.89 268.215 289.699 254.532C291.513 251.19 293.933 248.406 295.748 245.064C305.425 231.141 315.706 216.659 322.359 200.508C328.407 186.583 334.454 172.66 339.898 159.293L343.527 150.38C353.809 124.761 373.162 106.381 399.168 95.7985C425.174 85.2162 447.552 71.8489 466.906 54.5833C483.236 40.1027 499.565 23.9506 511.665 3.3434C512.27 2.78669 512.27 2.22925 512.875 1.11585H577.589C573.96 16.1539 564.888 27.8496 551.582 37.8752L543.719 43.445C524.971 57.369 505.617 71.8496 488.683 89.1159C476.294 102.255 464.975 116.217 454.814 130.888C442.718 147.596 427.599 162.635 407.64 176.558C388.286 190.483 372.561 207.191 358.652 223.343C346.555 236.711 335.064 250.077 323.574 264.002C303.614 286.836 291.519 314.128 286.075 347.545C283.051 361.469 281.841 375.95 281.236 389.874C280.027 409.368 283.051 429.975 289.099 453.925C293.937 470.633 297.567 489.013 296.356 508.507C293.938 540.254 284.261 565.874 266.116 585.925C255.835 597.064 242.529 603.748 224.991 605.975C220.981 606.452 216.937 606.639 212.895 606.532M212.895 608.76C217.138 608.852 221.382 608.667 225.596 608.203C242.53 605.975 257.045 599.849 267.932 587.597C287.89 565.318 296.357 538.027 298.776 509.065C299.986 489.571 296.357 471.192 291.519 453.369C286.076 432.761 282.447 411.598 283.656 389.876C284.167 375.702 285.58 361.568 287.89 347.547C293.333 316.914 304.825 289.066 325.388 265.117C336.878 251.749 348.975 238.383 360.466 225.016C375.586 207.75 390.705 191.598 408.85 178.231C426.994 164.864 443.323 150.382 456.629 132.003C466.891 117.574 478.206 103.804 490.495 90.7868C509.244 70.7362 531.621 55.6982 553.394 39.5467C566.697 29.5212 576.978 16.7113 581.213 0.00244141H511.661L509.847 3.34403C498.355 22.8379 482.63 38.4326 465.695 53.4706C446.335 70.8385 423.549 84.6386 398.562 94.1283C371.347 104.711 352.598 123.647 341.712 149.824C334.454 167.09 327.802 183.798 320.544 200.511C311.471 219.447 299.375 236.156 287.279 253.421C277.66 267.397 270.896 282.874 267.318 299.09C261.27 329.165 258.851 360.355 257.036 390.988C255.222 418.836 258.247 445.571 265.504 472.861C271.552 495.139 272.761 517.418 264.294 539.696C255.222 564.203 236.473 578.126 212.886 578.126C205.683 578.057 198.536 576.928 191.719 574.785C170.55 568.102 153.616 554.735 137.286 540.81C117.932 525.216 97.3693 510.177 74.3868 498.482C49.5937 486.226 24.1923 475.645 0 462.279V524.099C1.81433 524.656 4.23395 524.656 6.04829 525.213C36.8927 530.783 67.1333 539.137 94.9536 555.846C113.098 566.985 130.032 579.795 149.386 590.376C169.344 601.516 190.512 608.757 212.89 608.757L212.895 608.76Z" fill="#292929" />
		<path d="M2.41886 378.735V331.394C37.4972 328.609 76.8095 323.04 110.074 300.762C151.804 272.914 176.601 234.484 183.859 186.584C185.069 177.673 186.278 168.205 187.487 158.737C188.698 145.927 190.512 132.003 192.93 119.193C197.769 95.2432 206.236 77.9776 220.147 65.7245C229.826 57.369 241.92 50.6893 253.411 43.445L257.04 41.2175C276.393 30.0785 289.095 19.4962 299.376 6.12901C299.981 5.57231 300.586 3.90146 301.19 2.78732V2.22999H337.478C332.64 24.5087 319.334 41.7742 295.143 56.2549C292.119 58.4824 288.49 60.1539 285.465 61.8247C273.975 69.0653 262.484 75.7486 251.598 85.2169C240.712 94.685 232.243 106.938 225.591 124.761C218.938 140.913 216.519 158.179 213.495 174.888C212.929 179.01 212.122 183.1 211.076 187.14C207.448 208.305 202.609 231.141 189.303 250.077C176.602 268.457 159.668 283.495 143.944 297.975L142.129 299.647C125.564 314.262 106.83 326.638 86.488 336.406C81.045 339.191 75.6013 341.419 70.1582 344.203C47.781 354.785 25.403 365.367 3.63021 378.178C3.02569 378.178 3.02569 378.735 2.42039 378.735M0 382.076C1.81434 381.519 3.02414 380.962 4.83847 380.405C31.4497 364.81 59.8792 352.001 87.6962 338.634C107.655 328.607 127.009 316.355 143.943 300.761C160.877 285.166 177.812 270.128 191.117 251.191C205.027 231.698 209.865 209.419 213.494 187.14C217.123 165.976 219.543 145.369 227.405 125.319C232.848 110.838 240.709 97.4706 252.806 86.8884C266.112 75.1919 281.835 67.3946 296.352 58.4838C319.334 44.5592 336.269 26.7362 341.108 0.00244141H299.982C299.219 1.96386 298.204 3.83391 296.957 5.57231C286.07 20.0529 271.556 30.6352 255.832 39.5467C242.525 47.3434 229.826 54.5848 218.333 64.6096C202.003 79.0903 194.745 98.5841 190.512 119.192C186.278 141.471 185.069 164.306 181.441 186.027C174.182 234.483 149.386 271.799 108.864 299.091C76.205 320.811 38.1025 326.381 0 329.722V382.076Z" fill="#292929" />
		<path d="M349.575 833.214C353.809 814.277 361.066 797.011 370.743 780.304L387.073 753.57C391.911 745.772 396.75 737.974 400.983 730.177C403.436 726.396 405.657 722.491 407.636 718.481C414.288 707.341 420.942 695.645 428.199 684.507C442.714 663.342 460.252 648.861 480.816 641.621C489.284 638.836 497.751 637.165 505.613 637.165C529.2 637.165 549.159 649.418 560.65 670.583C567.907 683.95 572.746 700.101 575.166 720.709C576.375 730.734 576.98 741.317 578.19 751.342C578.795 761.924 580.004 773.063 581.213 783.646C582.424 795.342 584.238 807.037 586.053 818.177C586.656 823.189 587.867 827.645 588.471 832.657H550.368V793.67C550.368 784.759 550.973 775.847 551.577 767.493C552.182 756.354 553.392 745.215 552.788 734.075C551.578 716.81 549.159 698.987 537.668 682.836C528.596 670.026 514.685 662.785 499.565 662.785C489.888 662.785 480.212 665.57 471.14 670.583C457.834 678.38 446.948 690.076 437.875 706.786C433.642 714.583 429.408 722.38 425.174 729.62C413.079 752.456 399.773 776.404 386.467 799.242C379.815 810.38 375.581 821.52 373.766 832.659H349.575M346.551 835.442H376.186C378.001 823.189 382.839 811.492 388.887 800.91C406.427 770.277 422.756 739.088 439.689 708.456C447.552 694.531 457.229 681.722 471.744 673.367C480.212 668.354 489.889 665.569 498.96 665.569C512.87 665.569 526.176 671.695 535.248 684.506C546.135 699.543 548.554 716.81 549.763 734.632C550.974 754.683 547.345 774.176 547.345 794.227V835.442H590.285C587.867 818.177 584.842 800.91 582.423 784.203C580.004 763.038 578.795 741.874 576.98 721.266C575.166 703.442 570.932 686.177 562.464 670.583C550.974 646.076 529.197 634.937 506.218 634.937C497.339 635.066 488.547 636.572 480.212 639.393C457.227 647.747 439.689 663.341 426.382 683.392C416.101 697.873 407.636 714.028 398.564 729.062C388.89 745.772 378.609 762.48 368.327 779.19C358.044 796.827 350.702 815.791 346.551 835.442Z" fill="#292929" />
		<path d="M1099.53 833.215C1114.65 800.911 1140.65 781.975 1176.94 776.961C1183.16 776.295 1189.43 775.923 1195.69 775.847C1205.97 775.847 1216.86 776.961 1227.14 777.518H1230.16C1233.79 778.075 1237.42 778.075 1240.44 778.632C1251.93 779.747 1264.03 780.303 1276.13 781.975C1302.14 785.873 1305.15 788.658 1310.6 813.721C1312.03 820.157 1313.04 826.667 1313.62 833.215H1268.27C1265.24 831.544 1263.43 829.316 1260.4 827.088C1257.38 824.304 1254.35 821.519 1250.12 819.291C1233.19 810.936 1218.06 807.037 1202.95 807.037C1189.64 807.037 1176.34 810.378 1163.63 817.063C1157.59 820.405 1153.35 823.746 1150.33 827.645C1148.78 829.739 1146.7 831.458 1144.29 832.657H1099.53M1095.9 835.442H1144.89C1147.96 834.187 1150.52 832.035 1152.14 829.316C1155.78 824.86 1160 822.075 1164.84 819.291C1176.41 813.071 1189.56 809.803 1202.94 809.822C1218.67 809.822 1233.79 814.277 1248.91 822.075C1256.17 825.417 1260.4 832.101 1267.05 835.999H1316.05C1315.97 828.674 1314.96 821.383 1313.02 814.277C1307.58 788.658 1303.34 784.759 1276.73 780.859C1261.61 778.632 1245.88 777.518 1230.77 776.404C1219.27 775.29 1207.78 774.176 1196.29 774.176C1189.64 774.176 1183.59 774.733 1176.94 775.29C1138.23 779.746 1111.02 800.354 1095.9 835.442Z" fill="#292929" />
		<path d="M4.2329 833.214H3.02308V817.061C9.67589 817.061 16.3287 816.504 22.9815 815.947C30.2389 815.39 36.8916 814.833 44.1497 814.833H45.3595C62.2938 814.833 80.4379 817.06 93.139 832.656H50.198C34.4735 833.213 19.3536 833.213 4.2329 833.213M4.2329 835.441H96.766C84.0665 816.504 64.7118 813.163 44.7543 813.163H43.5452C29.0298 813.163 15.1196 814.834 1.20952 814.834H0.604237V831.543C-0.000282764 834.885 0.604237 835.442 4.2329 835.442V835.441Z" fill="#292929" />
		<path d="M1355.96 768.05V765.822C1351.32 765.915 1346.67 765.729 1342.05 765.266C1329.95 763.594 1323.3 758.582 1319.67 748C1316.3 737.65 1314.07 727.014 1313.02 716.253C1313.02 714.582 1312.42 712.354 1312.42 710.682C1311.81 706.227 1311.21 701.771 1311.81 697.873C1311.21 688.405 1312.42 679.494 1314.83 670.025C1319.67 652.759 1325.11 648.304 1343.25 644.402C1347.25 643.727 1351.29 643.355 1355.36 643.287C1365.64 643.287 1375.31 645.516 1386.81 648.858C1404.35 653.87 1416.44 660.554 1425.51 669.464C1438.81 682.832 1446.08 699.541 1444.86 715.692C1443.65 729.059 1437 740.198 1424.91 749.11C1417.34 754.353 1408.7 758.141 1399.51 760.249C1387.41 763.034 1372.29 766.376 1355.96 766.376V768.046M1355.96 768.046C1371.08 768.046 1385.59 765.262 1400.11 761.92C1409.57 759.743 1418.43 755.758 1426.12 750.223C1456.97 727.946 1451.52 691.743 1427.33 667.793C1416.44 656.654 1402.54 650.528 1387.41 646.629C1376.53 643.848 1366.24 641.062 1355.36 641.062C1351.29 641.13 1347.25 641.503 1343.27 642.177C1323.91 646.076 1318.46 651.089 1313.02 669.468C1310.42 678.736 1309.41 688.318 1309.99 697.873C1308.79 703.442 1310.6 710.125 1311.21 716.253C1312.42 727.392 1314.23 737.974 1317.86 748.557C1322.1 760.253 1329.95 765.822 1342.05 767.492C1346.28 767.492 1351.12 768.049 1355.96 768.049V768.046Z" fill="#292929" />
		<path d="M821.923 782.531C806.803 782.531 789.263 769.721 785.634 756.354V755.24C784.442 751.629 783.83 747.876 783.82 744.101C784.425 733.519 788.054 722.937 795.915 711.24C804.384 697.873 814.06 689.519 825.552 683.95C827.795 682.875 830.281 682.303 832.809 682.278C837.042 682.278 840.066 684.506 843.09 688.962C848.533 697.873 850.347 707.898 851.558 717.923V718.48C854.581 734.633 852.767 748.556 847.324 761.923C844.299 769.164 840.067 774.176 834.623 777.518C830.995 781.417 826.76 782.53 821.921 782.53M821.921 785.315C826.76 785.315 831.598 784.201 835.832 780.859C842.484 776.404 846.113 770.834 849.138 764.151C855.049 749.956 856.516 734.519 853.372 719.593C851.558 709.011 849.742 698.429 844.299 688.961C841.276 683.393 837.042 680.607 832.204 680.607C829.215 680.632 826.288 681.403 823.736 682.836C810.432 688.963 800.754 698.988 792.892 710.683C786.235 721.266 781.401 731.85 780.796 744.658C780.191 749.114 782.006 753.012 783.214 757.468C787.449 770.835 805.592 785.313 821.923 785.313L821.921 785.315Z" fill="#292929" />
		<path d="M213.494 579.24C208.051 579.24 202.003 578.126 195.955 577.013C178.415 572 161.481 562.531 144.547 547.494C114.912 521.316 81.0435 500.153 39.9168 482.886C30.2399 478.431 19.9584 473.418 7.86261 466.735C5.4939 465.667 3.57877 463.904 2.41963 461.722V382.63C3.62943 380.403 6.04829 378.732 8.46791 377.061C33.2648 363.137 59.8753 350.883 82.8585 340.301C106.446 329.163 125.8 316.91 142.733 302.429C156.039 290.732 171.159 276.251 184.465 260.1C197.166 244.505 205.634 226.125 210.472 203.29C212.286 194.936 213.495 186.025 214.706 177.67C216.52 165.417 218.94 153.164 221.963 140.911C228.012 119.189 235.873 103.595 247.97 90.7841C257.041 81.3159 268.533 74.0752 279.419 67.392C281.965 66.303 284.394 64.9977 286.677 63.4929C296.354 57.9231 306.031 52.3539 314.498 44.5565C326.594 33.4175 334.456 21.1644 338.69 7.24051C339.188 5.34875 340.233 3.61654 341.715 2.22808H391.912C393.766 3.30047 395.239 4.84953 396.146 6.68381C399.775 13.9245 406.428 18.3802 414.29 18.3802C416.709 18.3802 418.524 17.8235 420.943 17.2661C427.596 15.5953 433.644 12.8104 438.482 8.35462L439.087 7.79793C442.715 5.5704 445.135 3.34222 447.553 2.22808H509.848C510.453 3.34222 509.848 4.45563 508.639 6.1271C508.575 6.54943 508.362 6.94092 508.034 7.24122C502.8 15.5494 496.725 23.3824 489.887 30.6355C465.091 57.3692 441.503 75.1922 416.707 86.8886L412.474 88.5594C407.031 90.7869 401.587 93.5719 396.144 95.8001C369.533 106.382 350.784 126.432 339.292 155.955L338.083 159.855C332.64 173.221 327.196 187.145 320.544 200.513C312.076 218.892 301.19 235.044 290.304 249.525C275.789 270.133 266.717 294.081 263.087 323.6C260.669 342.537 258.249 364.815 257.04 387.651C255.83 416.056 258.249 443.904 264.903 470.081C267.927 482.89 270.95 496.258 270.346 510.182C269.135 533.574 262.483 550.839 249.783 563.651C239.501 573.676 227.405 579.245 213.494 579.245M213.494 581.473C228.009 581.473 240.709 576.461 251.597 564.765C266.717 549.726 271.555 530.233 272.765 510.183C273.369 496.259 270.95 482.892 267.322 469.525C260.064 442.234 258.25 414.943 260.064 387.652C261.275 366.487 263.693 345.323 266.113 323.602C269.137 297.424 276.999 272.915 292.724 250.64C304.216 235.045 314.497 218.893 322.964 201.628C330.221 187.146 335.666 172.109 341.712 157.071C351.994 129.78 369.533 109.172 397.354 98.0333C404.007 95.2484 410.659 91.9067 417.313 88.5652C446.343 75.1979 469.93 55.1474 491.702 31.756C498.356 24.5153 505.008 16.718 509.847 8.36388C511.662 6.13633 514.081 3.35145 511.662 0.00976562H446.946C443.782 1.8687 440.752 3.91519 437.875 6.13633C433.029 10.2404 427.241 13.2863 420.941 15.0478C418.993 15.6851 416.957 16.0603 414.894 16.162C408.24 16.162 402.193 12.8203 398.564 6.13633C397.354 3.35145 395.539 1.68061 393.121 0.00976562H341.108C338.689 1.68061 337.479 3.90889 336.874 6.69304C332.64 21.1737 324.173 33.4269 312.682 43.4525C302.4 52.3639 290.305 59.0472 278.208 65.7311C266.717 72.4144 255.83 79.6551 246.154 89.6807C232.243 104.153 224.985 121.42 219.544 140.914C214.101 161.52 212.287 182.685 207.449 203.294C203.214 223.344 195.352 242.28 182.046 258.989C169.951 274.026 155.436 287.394 140.921 300.204C123.378 315.799 102.815 328.052 81.6479 338.077C56.8511 349.774 31.4497 362.026 7.25733 375.393C4.23395 377.064 1.81434 378.735 0 382.076V462.278C1.81434 465.063 3.62866 467.291 6.65281 468.405C17.0048 474.659 27.9332 480.063 39.3123 484.556C77.4148 501.266 111.889 521.873 143.338 549.164C158.458 562.531 175.392 573.67 195.35 579.239C201.399 580.354 207.447 581.468 213.494 581.468V581.473Z" fill="#292929" />
		<path d="M377.395 833.214C376.79 832.1 376.79 830.987 377.395 828.759C381.023 815.392 387.072 802.025 396.749 786.987C410.054 765.265 421.545 744.103 431.827 722.937C439.686 706.785 447.551 695.088 456.623 685.62C469.929 671.697 483.84 665.57 498.96 665.57C501.394 665.478 503.832 665.665 506.217 666.127C520.127 667.798 531.013 675.595 538.876 689.518C545.528 701.215 549.157 715.139 550.368 733.518C550.871 746.339 550.467 759.177 549.157 771.949C549.157 775.291 548.553 778.632 548.553 781.417C547.948 791.063 547.948 800.733 548.553 810.379V828.759C548.553 830.987 548.553 832.657 547.343 833.771H497.144C496.387 832.588 495.97 831.245 495.935 829.872C497.312 814.672 499.94 799.592 503.798 784.759C506.822 773.063 509.846 760.252 511.661 747.443C512.87 737.975 511.661 729.063 507.426 721.265C504.403 715.139 498.96 711.797 492.911 711.797C489.72 711.744 486.577 712.516 483.84 714.025C477.791 717.366 474.163 722.379 470.534 726.834C465.695 734.075 462.066 741.873 457.833 752.455C449.97 774.177 438.479 794.227 426.988 812.61C423.89 817.398 421.257 822.429 419.123 827.645C417.914 829.873 416.705 831.544 414.889 832.657H377.395M376.186 835.439H416.101C418.521 834.325 420.336 832.097 421.544 829.313C423.964 824.3 426.382 819.287 429.407 814.275C440.899 794.781 452.39 774.73 460.251 753.566C463.276 744.655 467.508 736.3 472.348 727.945C475.371 722.933 479 718.477 484.443 715.692C486.779 714.272 489.507 713.5 492.306 713.465C497.144 713.465 501.983 716.25 505.007 721.819C509.241 729.616 509.846 737.97 508.635 746.882C506.821 759.691 503.797 771.944 500.772 784.198C497.144 799.236 494.12 814.273 492.911 829.311C492.911 831.539 492.911 833.767 495.329 834.881H547.341C550.366 832.653 549.761 829.311 549.761 826.527C549.761 810.932 549.156 795.894 549.761 780.3C550.97 764.147 552.18 747.996 551.575 731.843C550.97 716.249 547.946 700.654 540.084 686.73C532.224 673.367 520.732 664.456 505.612 662.229C503.798 662.784 501.378 662.785 498.96 662.785C481.42 662.785 466.905 671.139 454.809 683.949C443.922 695.088 436.06 708.456 429.405 721.821C418.519 743.542 407.028 764.706 394.327 785.314C386.464 798.681 379.207 812.606 374.973 827.643C374.368 830.428 373.763 833.213 376.182 835.44L376.186 835.439Z" fill="#292929" />
		<path d="M1210.21 33.9777V31.7495C1200.81 31.7716 1191.45 30.648 1182.39 28.4078C1163.63 23.3954 1151.54 15.5981 1144.89 2.2308H1278.54C1272.49 16.7129 1261 25.0662 1241.05 28.4078C1231.1 30.3303 1220.97 31.264 1210.81 31.1928V33.9777M1210.21 33.9777C1220.56 33.8787 1230.87 32.9468 1241.05 31.1928C1259.8 27.8512 1274.92 19.4964 1281.57 0.560059H1141.26C1149.11 17.8256 1164.24 26.1811 1181.77 30.6361C1191.06 32.8417 1200.62 33.9644 1210.21 33.9777Z" fill="#292929" />
		<path d="M1149.11 833.214C1160 818.176 1176.34 810.379 1199.32 809.265H1204.16C1224.11 809.265 1241.66 814.835 1257.38 825.975C1259.8 828.202 1262.22 830.43 1264.03 833.215H1149.11M1144.29 835.443H1267.05C1264.64 830.987 1262.22 827.088 1257.98 824.303C1242.48 813.055 1223.29 806.97 1203.56 807.037H1198.72C1176.34 808.151 1156.98 815.392 1144.29 835.443Z" fill="#292929" />
		<path d="M870.306 534.127C853.977 534.127 840.067 526.33 826.156 517.975C808.617 506.837 791.682 493.47 775.957 480.103L768.7 473.976C745.717 455.597 728.179 432.761 714.873 403.799C705.196 383.192 694.31 367.596 682.214 355.344C667.699 341.419 650.765 330.837 630.202 324.154C623.548 321.927 616.291 319.698 609.639 317.471C600.567 314.686 590.89 311.901 581.818 308.56C560.045 300.762 549.157 289.623 545.529 272.357C543.11 261.774 544.925 250.635 552.182 237.269C567.302 206.078 581.818 182.128 598.752 160.963C605.286 152.367 614.292 145.618 624.759 141.471C628.265 140.376 631.942 139.811 635.645 139.8C643.508 139.8 650.765 142.585 659.837 149.268C667.7 154.838 673.143 163.192 678.586 170.433L679.189 171.547C694.31 193.825 715.478 213.319 744.512 234.484C771.728 253.977 794.711 272.914 813.458 292.964C822.531 302.432 831.603 311.344 841.28 321.369C857.61 337.52 877.568 351.445 899.945 363.14C905.994 365.925 912.041 369.823 919.298 373.722C933.209 382.077 942.281 394.887 946.514 412.709C955.586 450.025 944.7 484 915.669 513.519C902.968 526.887 887.848 533.57 870.914 533.57H870.31M870.31 536.355H871.519C890.268 536.355 905.388 528.001 918.089 515.19C946.515 486.785 959.215 452.254 949.539 412.152C945.306 395.444 936.838 380.964 921.114 371.494C914.672 367.64 908.009 364.107 901.155 360.912C879.529 350.126 859.925 336.211 843.095 319.697C833.417 310.229 824.346 300.76 815.274 291.292C794.711 269.014 771.123 250.077 745.721 232.255C720.924 214.432 698.546 194.939 681.007 169.876C674.959 161.522 669.516 153.166 661.048 147.04C653.183 141.471 644.712 137.015 635.645 137.015C631.686 137.002 627.767 137.762 624.15 139.243C613.267 143.142 604.196 150.382 596.939 159.293C578.189 183.245 563.069 209.42 549.763 236.154C544.32 247.851 540.086 259.546 543.111 272.914C547.344 292.964 561.859 304.102 580.003 311.344C595.727 317.47 612.662 321.369 628.387 326.938C647.737 333.587 665.28 344.04 679.794 357.571C693.704 371.495 703.986 387.647 712.453 405.469C725.155 432.761 742.694 456.71 766.886 476.203C785.635 491.242 804.384 506.836 824.342 519.645C838.857 528.558 853.373 536.355 870.306 536.355H870.31Z" fill="#292929" />
		<path d="M1231.98 444.457C1228.95 444.457 1225.93 442.786 1222.3 439.444C1214.44 431.647 1209.6 422.736 1203.56 413.267L1201.13 408.811C1187.83 386.533 1176.34 368.711 1164.24 352.003C1143.07 323.041 1117.67 304.105 1086.83 294.079C1078.63 291.383 1070.9 287.633 1063.84 282.94C1054.77 276.813 1050.54 266.788 1053.56 256.762C1059 237.269 1080.17 221.117 1100.74 221.117C1113.44 221.674 1126.14 225.573 1137.03 230.585C1153.35 237.269 1170.9 244.51 1189.04 246.738C1199.07 247.816 1209.17 248.374 1219.28 248.409C1244.68 248.409 1267.05 243.953 1287.62 235.042C1314.83 223.343 1331.78 202.181 1340.84 169.88C1342.05 165.424 1343.27 160.968 1344.47 155.956L1351.73 129.222C1359.59 105.826 1378.94 101.927 1389.83 101.927C1394.12 101.935 1398.4 102.498 1402.52 103.598C1433.37 110.281 1455.75 135.902 1459.98 168.762C1462.4 184.357 1457.57 198.838 1444.86 216.103C1432.77 232.255 1419.47 248.407 1406.76 264.001C1397.68 275.141 1388.02 286.28 1378.94 297.975C1362.01 319.14 1342.65 338.076 1323.91 356.456C1319.07 360.912 1314.23 365.924 1309.39 370.937C1293.06 387.089 1278.54 404.354 1264.64 420.507L1261.61 423.848C1255.56 430.531 1249.52 437.772 1241.04 441.671C1236.81 443.341 1234.39 444.455 1231.98 444.455M1231.98 446.683C1235 446.683 1237.42 445.569 1241.04 444.455C1251.33 439.443 1257.98 430.532 1265.24 422.177C1279.75 405.468 1294.27 388.759 1309.99 372.607C1334.19 349.216 1358.98 326.38 1380.15 299.645C1401.92 271.797 1425.51 246.178 1446.07 218.33C1456.35 203.849 1464.22 188.253 1461.79 169.318C1457.57 138.129 1437 109.725 1402.54 101.927C1398.2 100.826 1393.72 100.264 1389.22 100.256C1371.69 100.256 1355.96 108.61 1349.31 128.661C1345.08 142.028 1342.05 155.395 1338.41 169.32C1330.56 198.284 1314.83 220.559 1286.41 232.811C1264.64 242.28 1242.26 246.178 1218.67 246.178C1208.57 246.177 1198.47 245.619 1188.43 244.508C1170.28 242.28 1153.35 235.595 1137.02 228.355C1124.93 223.343 1112.83 218.887 1099.53 218.887C1077.75 218.887 1055.98 235.596 1050.54 256.203C1047.51 267.342 1051.75 277.925 1061.42 284.608C1068.55 289.511 1076.53 293.276 1085.01 295.747C1117.07 306.329 1141.86 326.38 1161.22 353.114C1174.52 371.493 1186.61 390.43 1198.11 409.922C1204.76 420.505 1210.21 431.644 1219.28 440.555C1224.73 445.011 1228.35 446.681 1231.98 446.681V446.683Z" fill="#292929" />
		<path d="M221.962 833.214C214.099 802.024 194.746 777.518 174.182 753.012C165.11 742.429 155.434 730.177 147.571 717.367C143.216 709.914 140.349 701.803 139.104 693.417C137.289 681.162 147.572 674.481 153.62 671.694C163.901 667.238 174.787 666.124 185.673 665.01L209.26 663.34C226.194 662.226 244.339 661.112 261.274 656.657C275.789 652.758 289.095 646.075 299.376 637.163C307.842 629.922 313.285 620.454 316.31 614.328C328.405 591.492 335.663 566.987 342.922 543.037L345.34 535.797C350.783 517.416 354.411 501.265 356.226 484.556C357.516 471.892 356.701 459.121 353.808 446.683L350.179 433.316C347.76 423.848 345.34 413.822 342.922 403.798C338.687 381.518 340.502 361.469 348.969 343.642C357.437 325.817 375.583 307.444 397.354 307.444H399.773C411.265 308 420.942 312.457 430.617 321.925L452.391 343.646C455.414 346.988 458.438 350.33 462.067 353.672C476.583 368.152 494.121 380.962 516.499 392.102C520.733 394.33 524.362 396.001 528.596 398.229C539.482 403.798 550.974 409.367 561.86 416.051C571.139 421.375 579.328 428.162 586.051 436.102C594.518 446.127 598.147 458.38 596.938 475.089C595.727 490.684 592.099 506.278 583.027 525.776C574.56 545.826 559.44 558.636 539.482 564.206C514.685 570.889 486.864 578.13 461.463 592.053C443.318 602.08 426.385 613.775 410.056 626.584C378.605 652.762 356.833 686.18 336.875 717.926C324.174 738.533 312.077 759.141 301.191 780.863C291.514 800.356 285.467 816.508 281.838 832.659H221.962M220.148 835.444H284.256C288.49 817.065 295.747 799.799 304.214 782.534C315.101 761.369 326.591 740.205 339.292 719.597C359.855 686.737 381.629 654.433 411.868 628.813C427.593 615.446 444.528 604.307 462.672 594.282C486.864 580.914 513.475 573.674 540.086 566.434C561.86 560.864 576.375 546.939 585.446 526.889C592.704 510.18 598.147 493.472 599.356 475.091C599.961 460.054 597.542 446.129 587.866 434.434C580.738 426.279 572.147 419.309 562.463 413.827C547.948 405.472 532.224 398.232 517.104 390.435C497.145 380.409 479.001 368.156 463.277 352.562L432.432 320.815C423.358 312.457 413.077 306.33 399.773 305.773H397.354C374.977 305.773 355.623 323.596 346.551 343.089C337.478 362.583 336.269 383.191 340.502 404.355C343.526 418.836 347.155 432.76 350.783 447.241C353.808 459.494 355.018 471.747 353.203 484.557C351.993 501.266 348.365 517.974 343.526 534.684C335.663 561.417 328.405 588.152 315.101 612.658C310.866 621.012 305.424 628.809 298.77 634.937C288.139 643.676 275.54 650.142 261.878 653.872C237.08 659.999 211.679 659.999 186.882 662.226C175.995 663.34 164.506 664.454 154.223 669.467C145.152 673.367 136.685 681.162 137.895 693.417C139.146 702.155 142.01 710.631 146.363 718.481C154.224 731.29 163.296 742.987 172.973 754.683C192.931 778.633 212.285 803.695 220.148 835.442V835.444Z" fill="#292929" />
		<path d="M885.427 209.977H882.403C855.792 207.191 831.6 196.609 808.013 178.23C780.797 156.508 769.306 125.876 760.838 95.7997L756.605 81.319C749.348 55.6987 742.09 28.9649 737.251 2.78781H948.931C946.512 8.35771 943.488 12.8134 939.859 17.8259C938.769 19.2626 937.76 20.7498 936.836 22.2816C925.344 38.9905 918.087 59.041 914.458 83.5473C912.039 96.9144 910.224 111.395 910.83 126.433C910.83 133.673 912.039 140.914 912.644 148.155C913.248 154.281 913.854 160.407 913.854 166.534C914.458 181.015 914.458 193.268 902.967 203.293C900.683 205.438 897.952 207.135 894.938 208.283C891.924 209.432 888.689 210.008 885.427 209.977ZM885.427 212.205C888.92 212.213 892.378 211.577 895.598 210.333C898.819 209.09 901.736 207.264 904.176 204.963C916.272 194.381 916.272 180.458 915.667 166.533C915.062 153.166 913.248 139.8 912.643 126.432C912.039 111.952 913.853 97.4704 916.272 82.9898C919.296 61.2685 925.948 41.218 938.044 22.8348C943.488 15.5977 948.931 8.91441 951.956 0.00292969H734.227C734.227 0.559633 734.831 1.67377 734.831 2.23048C740.88 33.9774 749.951 64.6101 758.419 95.7997C767.491 127.546 778.982 157.622 806.198 179.344C828.576 197.166 853.373 208.861 881.802 211.647C882.967 212.025 884.195 212.213 885.431 212.204L885.427 212.205Z" fill="#292929" />
		<path d="M1439.42 588.709C1414.03 588.709 1391.03 583.696 1369.26 573.671C1346.28 562.531 1333.59 538.583 1336 510.734C1339.63 475.646 1372.29 448.354 1401.33 440.557C1414.31 437.179 1427.75 435.492 1441.24 435.545C1456.36 435.545 1472.69 437.772 1490.23 441.671C1496.27 443.342 1502.94 444.456 1508.98 446.127V575.342C1504.14 576.456 1499.91 578.127 1495.07 579.797C1485.99 582.582 1476.93 585.924 1467.85 587.038C1458.42 588.167 1448.94 588.725 1439.43 588.709M1439.43 590.936C1449.15 591.025 1458.88 590.279 1468.46 588.709C1483.58 586.481 1496.88 580.355 1511.4 576.456V443.899C1504.75 442.228 1497.49 440.557 1490.83 438.887C1474.65 434.937 1457.98 432.878 1441.24 432.76C1427.55 432.783 1413.92 434.468 1400.73 437.772C1368.06 446.127 1337.21 475.089 1333.59 509.62C1331.16 536.912 1342.65 563.088 1368.06 574.784C1391.65 586.481 1415.23 590.936 1439.42 590.936H1439.43Z" fill="#292929" />
		<path d="M47.1742 263.444C37.4972 263.444 27.2157 261.773 19.9584 260.659C13.9101 259.545 8.46713 258.989 3.02414 257.874V219.445C3.62866 218.888 3.62866 218.888 4.23395 218.888C4.83925 218.888 6.04829 218.888 6.65281 219.445H7.25733C18.144 223.344 28.4256 226.128 39.3115 227.242C42.2885 227.886 45.327 228.26 48.3832 228.356C50.818 228.448 53.2557 228.261 55.6405 227.8C76.2034 224.458 90.1144 208.864 90.7188 188.255C91.9287 154.838 70.7605 129.218 36.2866 123.648C29.6338 122.534 23.5855 122.534 16.9327 122.534H7.25733C4.83847 122.534 3.62866 122.534 2.41886 121.42V78.5339H4.83847C27.8211 78.5339 47.1742 79.0906 66.5273 83.5464C94.3482 90.2296 111.887 107.496 119.75 135.9C127.007 162.634 127.612 184.913 121.564 205.524C111.887 238.384 91.3242 257.321 60.479 262.333C56.2451 263.447 52.0119 263.447 47.1734 263.447M47.1734 265.674C51.8313 265.58 56.4777 265.207 61.0835 264.56C94.952 258.991 114.91 237.269 123.983 206.08C130.636 182.688 128.822 158.739 122.168 135.346C114.307 107.496 96.1665 88.5589 67.1325 81.3189C46.5696 76.3057 26.0068 75.749 4.83847 75.749H0V121.42C2.41886 124.205 4.83847 124.205 7.86261 124.205H16.3298C22.378 124.205 29.0308 124.205 35.0783 125.319C67.7379 130.888 88.9053 155.395 87.6962 187.699C87.6962 207.75 74.3907 222.23 55.0368 225.571C52.6179 225.571 50.1983 226.128 48.384 226.128C45.3475 226.22 42.3087 226.034 39.3123 225.571C28.6012 223.826 18.0774 221.217 7.86261 217.774C6.65281 217.218 4.83847 217.218 3.62866 217.218C2.9119 217.131 2.18328 217.243 1.53659 217.541C0.889905 217.838 0.354743 218.308 0 218.888V260.103C6.65281 260.659 12.7011 261.773 19.3539 262.887C28.5084 264.639 37.8255 265.572 47.1749 265.672L47.1734 265.674Z" fill="#292929" />
		<path d="M935.021 833.214C940.217 818.469 948.89 804.964 960.422 793.669C961.96 792.073 963.805 790.751 965.865 789.77C967.676 788.713 969.769 788.135 971.913 788.1C976.752 788.1 978.566 792.555 979.776 795.34C981.509 800.953 982.324 806.772 982.195 812.606V833.77H935.021M931.996 835.442H984.009V812.05C984.099 806.034 983.285 800.036 981.59 794.226C979.776 788.1 976.147 785.316 971.309 785.316C968.686 785.282 966.128 786.068 964.051 787.543C962.237 788.657 959.817 790.328 958.608 791.999C946.292 804.446 937.195 819.297 931.996 835.442Z" fill="#292929" />
		<path d="M668.303 704.558C665.812 704.532 663.361 703.964 661.153 702.899C658.946 701.834 657.044 700.303 655.602 698.43C645.925 686.177 642.902 672.254 645.925 655.544C647.122 650.167 650.308 645.338 654.942 641.885C659.575 638.431 665.367 636.566 671.327 636.609H673.746C681.608 636.609 687.656 638.836 692.494 643.292C697.334 648.304 699.753 656.1 699.148 665.568C697.938 681.163 690.681 693.416 679.189 701.77C674.956 703.441 671.327 704.555 668.303 704.555M668.303 707.341C672.51 707.311 676.573 705.932 679.794 703.44C693.099 693.973 699.148 681.165 700.963 665.568C702.777 646.077 691.891 634.38 673.746 634.38H671.327C664.821 634.337 658.5 636.364 653.431 640.12C648.361 643.874 644.856 649.126 643.507 654.987C639.879 671.14 642.297 686.734 653.184 700.1C657.417 704.557 662.86 707.342 668.303 707.342V707.341Z" fill="#292929" />
		<path d="M1040.86 730.177V727.95H1037.84C1028.16 727.393 1025.74 721.266 1025.74 715.697C1025.14 706.785 1027.55 698.987 1029.97 690.076C1030.58 687.291 1031.79 684.506 1032.39 682.279C1033.6 676.709 1035.42 671.139 1036.63 666.126C1039.65 655.544 1042.68 644.406 1044.49 633.266C1046.91 617.672 1048.72 604.862 1048.72 592.608V580.355C1048.72 559.19 1048.72 538.026 1049.93 516.861C1050.54 507.394 1050.54 498.482 1050.54 489.013C1050.54 480.66 1050.54 472.305 1051.14 463.951V461.723C1051.75 451.14 1052.35 440.001 1056.59 429.419C1060.82 418.836 1068.68 412.71 1077.75 412.71C1081.99 412.71 1086.82 414.381 1091.06 417.165C1097.42 421.219 1102.44 426.808 1105.58 433.318C1112.23 445.568 1113.44 458.383 1114.04 469.52V497.368C1112.83 520.76 1115.86 541.368 1121.9 560.304C1129.77 583.14 1143.07 605.418 1162.43 628.253C1169.68 636.607 1176.94 644.962 1184.2 653.874L1186.61 656.658C1189.04 659.443 1190.85 662.785 1193.27 667.24C1198.11 677.823 1196.29 682.836 1185.41 688.962C1181.27 691.01 1176.76 692.331 1172.11 692.86C1144.89 698.43 1118.28 707.898 1095.9 716.253C1075.94 723.493 1059 729.062 1040.86 729.062V730.176M1040.86 730.176C1060.82 730.176 1078.96 723.493 1097.1 716.81C1121.9 707.341 1147.3 698.986 1173.31 693.417C1178.15 692.303 1182.98 691.19 1187.22 688.961C1199.92 681.721 1201.13 675.595 1196.29 664.455C1194.44 660.568 1192.22 656.84 1189.64 653.316C1181.77 643.848 1173.31 634.379 1165.44 624.911C1148.51 604.861 1133.99 583.14 1125.53 558.076C1118.27 536.912 1117.06 514.634 1117.67 495.697C1117.67 484 1118.27 475.647 1117.67 467.849C1117.06 455.039 1115.25 442.229 1108.59 430.533C1104.96 423.85 1099.52 417.723 1092.87 413.824C1088.03 411.041 1083.2 409.368 1078.36 409.368C1068.68 409.368 1059.61 415.495 1054.77 427.748C1049.93 438.887 1049.93 451.14 1049.33 462.837C1048.12 480.66 1049.33 497.926 1048.12 515.747C1046.3 540.811 1046.91 566.435 1046.91 591.493C1046.91 605.417 1045.09 618.784 1042.67 632.151C1039.65 648.861 1034.21 664.455 1029.97 681.164C1026.95 692.303 1022.72 703.442 1023.32 715.139C1023.92 724.05 1028.76 729.062 1037.84 729.062C1038.44 730.176 1039.65 730.176 1040.86 730.176H1040.86Z" fill="#292929" />
		<path d="M48.9897 226.128C35.6841 226.128 22.983 222.787 10.2827 218.888L8.46837 218.331C6.04952 217.774 4.23441 217.217 2.42009 217.217V124.204H13.9106C23.5875 124.204 32.6592 124.204 41.7316 126.431C56.8516 129.217 70.7617 139.242 79.2288 152.61C88.9058 167.647 91.3245 184.913 85.8816 200.508C81.0431 216.103 67.7376 225.571 51.4077 226.128H48.9897ZM48.9897 228.356H51.4085C59.8339 228.053 67.9393 225.303 74.5656 220.502C81.192 215.7 85.9997 209.092 88.3013 201.622C99.1872 168.761 76.8099 131.444 41.7316 124.204C32.6592 121.977 22.9823 121.977 13.9106 121.977H0.60498V218.888L7.86385 220.558C21.1694 224.457 35.0796 228.356 48.9897 228.356Z" fill="#292929" />
		<path d="M382.232 598.176C373.765 598.176 368.926 592.607 368.926 582.025C368.322 569.215 370.741 556.961 373.765 545.822C376.184 534.683 379.814 522.986 383.443 511.847C386.466 501.822 390.095 491.796 392.514 481.771C398.187 459.303 399.009 436.025 394.932 413.265C393.799 406.445 393.193 399.559 393.119 392.66C393.724 382.634 398.562 376.508 407.03 376.508C410.405 376.514 413.728 377.279 416.71 378.736C423.117 381.492 429.196 384.852 434.851 388.762C450.575 398.787 467.51 407.698 483.84 416.052L492.307 420.508C503.193 426.079 517.708 434.433 529.199 446.129C538.271 455.597 542.505 465.065 541.296 475.647C541.899 489.571 537.062 501.825 525.571 514.078C514.079 525.216 500.773 533.572 486.258 542.482C466.301 555.292 444.528 568.103 423.358 580.912L420.94 582.586C410.659 588.712 400.378 594.282 388.887 597.624C386.468 597.624 384.048 598.18 382.233 598.18M382.233 600.409C384.693 600.309 387.13 599.935 389.491 599.295C402.193 595.952 413.079 589.268 424.57 583.142L488.073 544.713C501.984 535.802 515.29 526.891 526.78 515.194C537.668 504.056 544.32 491.246 543.714 475.094C544.319 463.397 538.876 453.373 530.41 444.461C519.525 433.318 506.218 425.521 492.912 418.281C473.558 408.255 454.202 398.787 436.06 387.091C430.013 383.191 423.964 379.293 417.311 376.508C413.682 374.837 410.054 373.723 407.03 373.723C397.958 373.723 391.305 380.406 390.701 392.104C390.679 399.192 391.285 406.27 392.514 413.268C396.143 436.103 396.143 458.382 390.095 481.216C384.652 502.938 376.184 523.545 371.346 545.267C368.323 557.52 366.509 569.216 366.509 582.027C367.113 594.279 372.556 600.406 382.233 600.406V600.409Z" fill="#292929" />
		<path d="M247.363 744.102V741.873C241.315 741.873 234.662 739.089 229.823 734.075C221.357 725.721 220.752 724.051 220.752 718.481C220.752 712.911 224.986 707.342 231.034 706.228C236.477 705.114 241.92 704.001 246.758 704.001C250.614 704.096 254.456 704.468 258.249 705.115C263.088 706.229 266.717 708.456 268.531 712.355C270.949 716.254 270.949 721.823 267.926 727.393C263.692 736.861 255.83 741.874 247.363 741.874V744.102ZM247.363 744.102C256.435 744.102 264.903 738.531 270.346 727.949C275.789 716.253 270.95 705.671 258.855 702.887C254.621 701.772 250.992 701.772 246.758 701.772C241.22 701.692 235.705 702.445 230.429 703.999C223.776 705.671 218.333 712.355 218.333 718.481C218.333 725.164 219.543 727.392 228.011 735.189C233.452 741.317 240.711 744.102 247.364 744.102H247.363Z" fill="#292929" />
		<path d="M830.996 123.09C829.336 122.919 827.708 122.545 826.157 121.976C820.714 119.191 815.876 110.28 815.27 101.369C814.666 97.4702 815.27 89.6727 821.923 84.6603C824.342 82.9895 826.761 82.4328 829.181 81.8753C834.019 82.432 838.252 85.217 841.882 91.3436C847.328 99.6983 844.905 112.508 837.047 120.305C835.233 121.976 833.418 123.09 830.998 123.09M830.998 125.317C833.418 125.317 835.837 124.205 838.256 121.976C846.72 114.179 849.139 100.255 843.695 90.7833C840.673 85.7745 836.439 80.7613 829.181 80.2046C827.6 80.2175 826.037 80.5196 824.584 81.0932C823.13 81.6669 821.814 82.5006 820.714 83.5462C806.198 94.1292 814.666 118.635 824.947 124.205C827.367 124.205 829.181 125.319 830.996 125.319L830.998 125.317Z" fill="#292929" />
		<path d="M1423.7 548.608C1414.74 548.612 1405.89 546.906 1397.7 543.596C1384.38 538.584 1377.13 529.116 1375.92 516.305C1375.31 504.609 1380.15 494.584 1391.03 486.229C1401.32 478.431 1414.03 474.532 1429.14 474.532H1430.96C1452.13 474.532 1467.85 480.659 1481.15 492.356C1490.23 500.71 1490.83 512.962 1481.76 522.432C1467.25 538.584 1445.46 548.608 1423.69 548.608M1423.69 550.836C1446.08 550.836 1468.46 541.368 1484.18 524.103C1493.86 512.963 1492.64 499.596 1482.97 490.686C1467.85 476.761 1450.3 472.305 1430.96 472.305H1429.14C1414.63 472.305 1401.32 475.646 1389.22 484.559C1378.94 492.913 1372.29 502.938 1373.5 516.305C1374.71 530.786 1383.18 540.811 1396.48 545.824C1405.12 549.087 1414.37 550.788 1423.7 550.836H1423.69Z" fill="#292929" />
		<path d="M419.731 833.214C424.57 822.076 430.617 811.493 437.271 800.911C439.689 797.012 441.504 793.67 443.923 789.772C449.972 779.746 454.205 768.607 458.438 758.025C460.857 752.455 462.672 747.443 465.092 741.872C468.72 733.518 472.953 724.607 480.816 717.923C485.05 714.582 488.678 712.911 492.912 712.911C495.984 712.986 498.949 713.962 501.379 715.695C506.218 718.48 507.427 724.049 509.241 729.619C511.661 737.973 510.451 746.328 508.637 755.796C507.427 764.15 505.008 772.504 503.194 780.858C500.775 790.327 498.356 800.353 497.145 810.377C496.541 816.504 495.331 822.074 494.727 828.201L494.118 832.659H419.731M416.102 835.442H495.936C497.145 827.088 497.75 819.29 498.959 810.935C501.379 792.556 507.427 774.733 511.056 756.353C512.87 747.442 514.08 738.53 511.661 729.619C509.845 724.05 508.032 717.923 502.588 714.025C499.674 711.865 496.048 710.687 492.307 710.684C487.469 710.684 483.236 712.911 479.001 716.253C471.743 722.936 466.907 731.848 462.672 740.759C455.415 756.912 449.971 773.063 441.503 788.658C432.429 804.254 423.359 819.291 416.102 835.442Z" fill="#292929" />
		<path d="M414.288 16.1551C404.611 16.1551 399.168 8.91441 396.748 2.78781C396.748 2.23111 396.748 2.23111 396.144 1.67377H442.109C436.893 7.58277 429.976 12.0217 422.15 14.4836C419.731 16.1544 417.311 16.1544 414.287 16.1544M414.287 18.3819C417.4 18.3658 420.479 17.7985 423.359 16.7111C433.037 13.9269 441.503 8.357 446.946 0.00292969H393.119C393.614 1.34418 394.221 2.64787 394.934 3.90195C398.562 13.3701 405.821 18.3826 414.288 18.3826L414.287 18.3819Z" fill="#292929" />
		<path d="M204.422 529.671C201.964 529.572 199.527 529.198 197.165 528.557C183.256 524.101 171.159 515.748 162.692 508.506C146.967 496.253 130.032 484.557 113.098 473.419C104.026 467.291 94.349 460.608 84.6721 453.924C78.9682 450.344 74.0445 445.81 70.1567 440.557C55.6413 422.735 56.8511 406.022 73.7853 387.647C81.0427 379.85 89.5098 373.723 97.3724 368.153C120.96 352.56 145.152 336.406 168.135 321.369L171.159 319.141C178.623 313.946 187.015 309.988 195.956 307.445C198.434 306.422 201.104 305.855 203.819 305.774C211.076 305.774 216.519 309.673 220.148 318.584C224.986 330.837 227.405 344.761 226.8 361.469C226.8 375.951 225.591 390.988 224.381 404.913L223.777 415.495C222.567 429.418 223.173 443.9 224.987 462.279C225.592 465.621 225.592 468.963 226.197 472.306C227.407 484.002 229.221 496.255 226.801 507.95C225.592 513.521 224.383 516.862 221.963 520.204C217.729 526.33 211.681 529.672 204.423 529.672M204.423 531.9C212.286 531.9 218.938 528.001 223.777 521.318C226.277 517.378 227.922 513.027 228.615 508.508C231.64 492.913 228.615 477.319 226.801 462.28C226.197 446.686 224.987 431.091 226.197 415.496C227.407 397.672 228.615 379.293 229.221 361.47C229.826 346.432 228.012 331.952 222.569 318.028C218.94 308.56 212.287 303.547 203.82 303.547C201.401 303.547 198.981 304.104 195.957 304.661C186.886 307.446 178.417 311.902 169.95 317.471C145.152 333.624 120.355 349.773 96.1634 366.483C87.6963 372.052 78.6238 378.179 71.971 385.976C56.2466 403.799 52.0127 421.621 68.3424 441.672C72.5764 447.242 78.0193 451.697 83.4623 455.596C108.864 473.976 136.08 490.684 160.877 510.179C171.763 518.532 183.253 526.33 196.559 530.785C199.584 531.342 202.002 531.899 204.422 531.899L204.423 531.9Z" fill="#292929" />
		<path d="M860.63 482.889H859.419C850.953 482.332 841.88 480.104 831.598 475.091C812.85 465.623 795.915 454.484 780.796 440.559C766.886 427.75 755.999 410.484 746.927 388.762C735.134 358.628 718.188 330.425 696.729 305.217C691.891 299.646 688.866 293.521 685.843 286.837C682.818 280.153 681.608 275.698 685.238 270.685C688.262 266.23 693.1 264.001 699.753 264.001H701.567C713.059 264.558 724.55 268.458 737.25 275.141C757.813 286.28 773.539 302.431 786.845 316.912C811.035 344.204 831.599 365.368 850.953 383.748L861.839 393.773L881.797 412.154C888.314 418.535 893.263 426.133 896.31 434.431C899.939 443.899 898.124 455.039 892.681 463.95C890.12 468.181 886.657 471.891 882.5 474.857C878.342 477.825 873.577 479.987 868.489 481.215H867.282C865.286 482.35 862.975 482.931 860.63 482.886M860.63 485.114C863.547 485.096 866.429 484.527 869.099 483.443C891.476 478.987 905.992 454.482 898.734 433.874C895.71 424.963 890.267 417.166 883.615 410.483C873.938 400.456 863.052 391.546 852.77 382.078C830.392 360.913 809.225 338.636 788.661 315.8C774.146 299.091 758.421 284.053 738.463 273.471C726.969 267.344 714.872 262.33 702.172 261.774H699.752C693.1 261.774 687.657 263.444 683.423 269.015C678.585 275.142 681.003 281.268 684.028 287.394C686.896 293.99 690.764 300.178 695.52 305.774C716.687 330.837 733.622 358.128 745.113 388.761C752.976 408.254 763.257 426.634 779.586 441.671C794.836 455.546 812.144 467.36 830.995 476.76C840.067 481.216 849.742 484.558 860.024 485.115L860.63 485.114Z" fill="#292929" />
		<path d="M1238.63 368.152V365.925C1229.55 365.925 1221.09 360.913 1210.81 349.217C1202.95 340.306 1196.9 329.166 1193.27 315.8C1190.25 305.218 1194.48 296.305 1204.16 290.736C1216.86 284.053 1231.38 281.268 1244.68 279.04C1262.5 276.143 1280.45 274.098 1298.5 272.914H1300.32C1303.95 272.914 1307.58 273.47 1311.81 274.028C1314.75 274.626 1317.34 276.215 1319.07 278.483C1320.88 280.711 1321.48 284.053 1320.88 287.395C1319.07 295.192 1315.44 302.99 1308.79 312.458C1296.09 330.837 1279.76 345.876 1260.4 358.129C1251.94 363.141 1245.28 365.926 1238.63 365.926V368.152ZM1238.63 368.152C1245.28 368.152 1253.15 365.368 1261.61 359.799C1280.97 347.546 1297.3 331.951 1310.6 313.571C1316.04 305.774 1320.88 297.419 1323.3 287.951C1325.11 280.154 1320.28 273.471 1312.42 272.357C1308.42 271.682 1304.38 271.31 1300.32 271.243H1298.5C1280.36 272.357 1262.22 274.585 1244.07 277.369C1230.17 279.597 1216.25 282.382 1202.95 289.622C1192.06 295.192 1187.83 305.218 1190.85 316.914C1194.48 329.723 1199.92 341.42 1209 351.445C1219.27 362.03 1228.35 368.152 1238.63 368.152Z" fill="#292929" />
		<path d="M154.829 428.305V426.077C147.572 426.077 141.523 422.734 137.895 416.051C136.684 413.266 135.475 411.039 135.475 408.811C136.08 403.799 138.5 399.343 142.732 394.887C145.188 392.074 148.286 389.794 151.804 388.203L154.223 387.089C156.523 385.601 159.275 384.82 162.086 384.862C169.344 384.862 173.578 392.66 173.578 399.9C173.542 405.336 172.09 410.684 169.344 415.495C166.925 419.95 162.69 426.078 155.433 426.078L154.829 428.305ZM154.829 428.305C162.692 428.305 167.53 423.292 171.159 416.608C173.578 411.038 175.393 405.469 175.393 399.9C175.393 390.988 170.554 382.633 161.482 382.633C158.221 382.686 155.054 383.658 152.411 385.418C148.176 387.646 143.338 389.875 140.314 393.773C136.684 397.672 133.661 402.684 133.057 408.254C133.133 411.176 133.962 414.039 135.475 416.608C140.314 423.848 146.966 428.305 154.829 428.305Z" fill="#292929" />
	</g>
</svg>
