<svg width="124" height="56" viewBox="0 0 124 56" fill="none" xmlns="http://www.w3.org/2000/svg">
	<path fill-rule="evenodd" clip-rule="evenodd" d="M4 0C1.79086 0 0 1.79086 0 4V46C0 48.2091 1.79086 50 4 50H46C48.2091 50 50 48.2091 50 46V4C50 1.79086 48.2091 0 46 0H4ZM24.056 38.728V25.344H19.268V38.728C19.268 39.4373 19.1093 39.9787 18.792 40.352C18.4747 40.7253 18.0267 40.912 17.448 40.912C16.8133 40.912 16.328 40.7067 15.992 40.296C15.656 39.8667 15.488 39.2413 15.488 38.42H10.728C10.728 40.5853 11.3533 42.256 12.604 43.432C13.8547 44.608 15.516 45.196 17.588 45.196C19.5667 45.196 21.1347 44.636 22.292 43.516C23.468 42.396 24.056 40.8 24.056 38.728ZM39.4035 45L46.3755 25.344H41.3075L36.4075 40.184L31.5355 25.344H26.4395L33.4115 45H39.4035Z" fill="white" />
	<path d="M63.976 45.224C63.136 45.224 62.4453 44.9813 61.904 44.496C61.3813 43.992 61.12 43.376 61.12 42.648C61.12 41.9013 61.3813 41.276 61.904 40.772C62.4453 40.268 63.136 40.016 63.976 40.016C64.7973 40.016 65.4693 40.268 65.992 40.772C66.5333 41.276 66.804 41.9013 66.804 42.648C66.804 43.376 66.5333 43.992 65.992 44.496C65.4693 44.9813 64.7973 45.224 63.976 45.224ZM77.0023 25.344C79.0743 25.344 80.885 25.7547 82.4343 26.576C83.9837 27.3973 85.1783 28.5547 86.0183 30.048C86.877 31.5227 87.3063 33.2307 87.3063 35.172C87.3063 37.0947 86.877 38.8027 86.0183 40.296C85.1783 41.7893 83.9743 42.9467 82.4063 43.768C80.857 44.5893 79.0557 45 77.0023 45H69.6383V25.344H77.0023ZM76.6943 40.856C78.505 40.856 79.9143 40.3613 80.9223 39.372C81.9303 38.3827 82.4343 36.9827 82.4343 35.172C82.4343 33.3613 81.9303 31.952 80.9223 30.944C79.9143 29.936 78.505 29.432 76.6943 29.432H74.4263V40.856H76.6943ZM94.7701 29.18V33.156H101.182V36.852H94.7701V41.164H102.022V45H89.9821V25.344H102.022V29.18H94.7701ZM123.583 25.344L116.611 45H110.619L103.647 25.344H108.743L113.615 40.184L118.515 25.344H123.583Z" fill="white" />
</svg>
